<svg width="20" height="21" viewBox="0 0 20 21" fill="none" xmlns="http://www.w3.org/2000/svg">
<path d="M10.0004 15.1404C11.7642 15.1404 13.1941 13.7105 13.1941 11.9467C13.1941 10.1828 11.7642 8.75293 10.0004 8.75293C8.23653 8.75293 6.80664 10.1828 6.80664 11.9467C6.80664 13.7105 8.23653 15.1404 10.0004 15.1404Z" fill="white"/>
<path fill-rule="evenodd" clip-rule="evenodd" d="M19.8003 8.19042C19.6878 7.27806 19.2339 6.44215 18.5301 5.8508C17.8263 5.25945 16.9247 4.95651 16.0066 5.00292H15.7878C15.57 5.00301 15.3606 4.91822 15.2043 4.76652C15.0479 4.61483 14.9568 4.40817 14.9503 4.19042C14.9503 3.26542 14.9003 2.44667 14.8691 2.12792C14.7926 1.51991 14.4894 0.963191 14.02 0.56918C13.5507 0.175168 12.9499 -0.0270772 12.3378 0.0029162H7.66281C7.05601 -0.0190402 6.46295 0.186859 6.0003 0.580111C5.53765 0.973363 5.2389 1.5255 5.16281 2.12792C5.13156 2.44667 5.10031 3.26542 5.08156 4.19042C5.07834 4.30096 5.05325 4.40977 5.00776 4.51056C4.96226 4.61136 4.89725 4.70215 4.81648 4.77769C4.73571 4.85323 4.64078 4.91202 4.53717 4.95068C4.43356 4.98934 4.32332 5.00709 4.21281 5.00292H3.99406C3.07596 4.95651 2.17433 5.25945 1.47051 5.8508C0.766683 6.44215 0.312861 7.27806 0.200308 8.19042C0.0616127 9.62367 -0.00513771 11.063 0.000308099 12.5029C-0.00513771 13.9429 0.0616127 15.3822 0.200308 16.8154C0.312861 17.7278 0.766683 18.5637 1.47051 19.155C2.17433 19.7464 3.07596 20.0493 3.99406 20.0029H16.0066C16.9247 20.0493 17.8263 19.7464 18.5301 19.155C19.2339 18.5637 19.6878 17.7278 19.8003 16.8154C19.939 15.3822 20.0058 13.9429 20.0003 12.5029C20.0058 11.063 19.939 9.62367 19.8003 8.19042ZM8.31906 1.63417H11.5003C11.6345 1.6234 11.7694 1.64053 11.8967 1.68449C12.0239 1.72844 12.1407 1.79827 12.2396 1.88957C12.3385 1.98086 12.4174 2.09166 12.4714 2.21497C12.5254 2.33828 12.5533 2.47143 12.5533 2.60604C12.5533 2.74065 12.5254 2.87381 12.4714 2.99712C12.4174 3.12043 12.3385 3.23122 12.2396 3.32252C12.1407 3.41382 12.0239 3.48364 11.8967 3.5276C11.7694 3.57155 11.6345 3.58869 11.5003 3.57792H8.34406C8.11755 3.5792 7.8974 3.50306 7.72008 3.36211C7.54276 3.22117 7.41892 3.02387 7.36906 2.80292C7.33925 2.66166 7.3414 2.51552 7.37533 2.3752C7.40927 2.23487 7.47414 2.10391 7.5652 1.99188C7.65626 1.87985 7.77121 1.78959 7.90164 1.7277C8.03207 1.66581 8.17469 1.63385 8.31906 1.63417ZM15.1128 12.5029C15.0157 13.4704 14.646 14.3905 14.0467 15.1562C13.4474 15.9219 12.643 16.5018 11.7272 16.8285C10.8114 17.1552 9.82164 17.2154 8.87301 17.0019C7.92438 16.7884 7.05581 16.31 6.36824 15.6225C5.68068 14.9349 5.20236 14.0663 4.98887 13.1177C4.77537 12.1691 4.83548 11.1793 5.16219 10.2635C5.48891 9.34768 6.06882 8.54337 6.83453 7.94406C7.60024 7.34475 8.52031 6.97505 9.48781 6.87792C10.2448 6.80419 11.0087 6.89903 11.7247 7.15564C12.4406 7.41226 13.0909 7.82426 13.6287 8.36206C14.1665 8.89986 14.5785 9.5501 14.8351 10.2661C15.0917 10.982 15.1865 11.7459 15.1128 12.5029Z" fill="white"/>
</svg>
