<svg width="14" height="14" viewBox="0 0 14 14" fill="none" xmlns="http://www.w3.org/2000/svg">
<g clip-path="url(#clip0_158_935)">
<path d="M3.49935 11.0833C3.49935 11.725 4.02435 12.25 4.66602 12.25H9.33268C9.97435 12.25 10.4993 11.725 10.4993 11.0833V5.25C10.4993 4.60833 9.97435 4.08333 9.33268 4.08333H4.66602C4.02435 4.08333 3.49935 4.60833 3.49935 5.25V11.0833ZM5.34852 6.51583C5.57602 6.28833 5.94352 6.28833 6.17102 6.51583L6.99935 7.34417L7.82768 6.51583C8.05518 6.28833 8.42268 6.28833 8.65018 6.51583C8.87768 6.74333 8.87768 7.11083 8.65018 7.33833L7.82185 8.16667L8.65018 8.995C8.87768 9.2225 8.87768 9.59 8.65018 9.8175C8.42268 10.045 8.05518 10.045 7.82768 9.8175L6.99935 8.98917L6.17102 9.8175C5.94352 10.045 5.57602 10.045 5.34852 9.8175C5.12102 9.59 5.12102 9.2225 5.34852 8.995L6.17685 8.16667L5.34852 7.33833C5.12102 7.11667 5.12102 6.74333 5.34852 6.51583ZM9.04102 2.33333L8.62685 1.91917C8.52185 1.81417 8.37018 1.75 8.21852 1.75H5.78018C5.62852 1.75 5.47685 1.81417 5.37185 1.91917L4.95768 2.33333H3.49935C3.17852 2.33333 2.91602 2.59583 2.91602 2.91667C2.91602 3.2375 3.17852 3.5 3.49935 3.5H10.4993C10.8202 3.5 11.0827 3.2375 11.0827 2.91667C11.0827 2.59583 10.8202 2.33333 10.4993 2.33333H9.04102Z" fill="#FF0000"/>
</g>
<defs>
<clipPath id="clip0_158_935">
<rect width="14" height="14" fill="white"/>
</clipPath>
</defs>
</svg>
