<svg width="20" height="20" viewBox="0 0 20 20" fill="none" xmlns="http://www.w3.org/2000/svg">
<g clip-path="url(#clip0_154_665)">
<path fill-rule="evenodd" clip-rule="evenodd" d="M9.9999 0.00976562C4.48151 0.00976562 0.00683594 4.48319 0.00683594 10.0001C0.00683594 15.5169 4.48151 19.9903 9.9999 19.9903C15.5183 19.9903 19.993 15.5169 19.993 10.0001C19.993 4.48319 15.5183 0.00976562 9.9999 0.00976562ZM8.91857 11.3429C8.84857 11.6508 8.81357 11.9587 8.81357 12.2667H10.8296C10.8296 12.0054 10.8436 11.8071 10.8716 11.6718C10.8996 11.5365 10.9789 11.3616 11.1096 11.147C11.1796 11.0397 11.2589 10.937 11.3476 10.8391C11.4409 10.7364 11.5436 10.6291 11.6556 10.5171C11.7722 10.4005 11.9029 10.2652 12.0476 10.1113C12.3836 9.75202 12.6659 9.36479 12.8946 8.94958C13.1232 8.53436 13.2376 8.07249 13.2376 7.56396C13.2376 7.24672 13.1816 6.9318 13.0696 6.61922C12.9576 6.30198 12.7989 6.02439 12.5936 5.78645C12.2856 5.40856 11.8959 5.13797 11.4246 4.97468C10.9532 4.80673 10.4516 4.72275 9.91957 4.72275C9.59757 4.72275 9.27557 4.7694 8.95357 4.86271C8.63157 4.95602 8.33757 5.09131 8.07157 5.2686C7.70757 5.50653 7.41123 5.83311 7.18257 6.24833C6.9539 6.66354 6.81157 7.12075 6.75557 7.61995H8.77157C8.7669 7.438 8.7949 7.27238 8.85557 7.12308C8.9209 6.97379 9.0189 6.85016 9.14957 6.75219C9.2569 6.66821 9.38523 6.60756 9.53457 6.57024C9.68857 6.53291 9.8449 6.51425 10.0036 6.51425C10.2136 6.51425 10.4096 6.54924 10.5916 6.61922C10.7782 6.68454 10.9276 6.79417 11.0396 6.94813C11.1096 7.03677 11.1562 7.13941 11.1796 7.25605C11.2076 7.37268 11.2216 7.49398 11.2216 7.61995C11.2216 7.86254 11.1889 8.08648 11.1236 8.29176C11.0629 8.49237 10.9369 8.69765 10.7456 8.90759C10.4982 9.16885 10.2836 9.37179 10.1016 9.51642C9.92423 9.66105 9.76557 9.80334 9.62557 9.9433C9.49023 10.0786 9.36423 10.2652 9.24757 10.5031C9.1029 10.7551 8.99323 11.035 8.91857 11.3429ZM8.82757 12.9805V14.9959H10.8296V12.9805H8.82757Z" fill="#606060"/>
</g>
<defs>
<clipPath id="clip0_154_665">
<rect width="20" height="20" fill="white"/>
</clipPath>
</defs>
</svg>
