<svg width="20" height="20" viewBox="0 0 20 20" fill="none" xmlns="http://www.w3.org/2000/svg">
<path d="M16 7V3C16 1.89543 15.1046 1 14 1H4.5C2.567 1 1 2.567 1 4.5V7" stroke="#606060" stroke-width="2" stroke-linejoin="round"/>
<path d="M3.78125 6C2.36875 6 2.01562 4.82292 2.01562 4.23438H0.25V7.76562H3.78125V6Z" fill="#606060"/>
<mask id="path-3-inside-1_154_632" fill="white">
<path fill-rule="evenodd" clip-rule="evenodd" d="M3.5 6H18C19.1046 6 20 6.89543 20 8V18C20 19.1046 19.1046 20 18 20H4C1.79086 20 0 18.2091 0 16V6H3.5ZM15.6429 15C14.4594 15 13.5 14.1046 13.5 13C13.5 11.8954 14.4594 11 15.6429 11H16C16.5523 11 17 11.4477 17 12V14C17 14.5523 16.5523 15 16 15H15.6429Z"/>
</mask>
<path fill-rule="evenodd" clip-rule="evenodd" d="M3.5 6H18C19.1046 6 20 6.89543 20 8V18C20 19.1046 19.1046 20 18 20H4C1.79086 20 0 18.2091 0 16V6H3.5ZM15.6429 15C14.4594 15 13.5 14.1046 13.5 13C13.5 11.8954 14.4594 11 15.6429 11H16C16.5523 11 17 11.4477 17 12V14C17 14.5523 16.5523 15 16 15H15.6429Z" fill="#606060"/>
<path d="M0 6V4C-1.10457 4 -2 4.89543 -2 6H0ZM18 4H3.5V8H18V4ZM22 8C22 5.79086 20.2091 4 18 4V8H22ZM22 18V8H18V18H22ZM18 22C20.2091 22 22 20.2091 22 18H18V22ZM4 22H18V18H4V22ZM-2 16C-2 19.3137 0.686291 22 4 22V18C2.89543 18 2 17.1046 2 16H-2ZM-2 6V16H2V6H-2ZM3.5 4H0V8H3.5V4ZM11.5 13C11.5 15.3369 13.487 17 15.6429 17V13C15.5592 13 15.5108 12.9694 15.4923 12.9521C15.4834 12.9439 15.4853 12.9425 15.4901 12.953C15.4957 12.9653 15.5 12.983 15.5 13H11.5ZM15.6429 9C13.487 9 11.5 10.6631 11.5 13H15.5C15.5 13.017 15.4957 13.0347 15.4901 13.047C15.4853 13.0575 15.4834 13.0561 15.4923 13.0479C15.5108 13.0306 15.5592 13 15.6429 13V9ZM16 9H15.6429V13H16V9ZM19 12C19 10.3431 17.6569 9 16 9V13C15.4477 13 15 12.5523 15 12H19ZM19 14V12H15V14H19ZM16 17C17.6569 17 19 15.6569 19 14H15C15 13.4477 15.4477 13 16 13V17ZM15.6429 17H16V13H15.6429V17Z" fill="#606060" mask="url(#path-3-inside-1_154_632)"/>
</svg>
