<svg width="15" height="15" viewBox="0 0 15 15" fill="none" xmlns="http://www.w3.org/2000/svg">
<g clip-path="url(#clip0_398_3440)">
<path d="M5.43 10.2427C5.55031 10.2427 5.64875 10.1443 5.64875 10.024V9.2168C5.64875 9.09648 5.55031 8.99805 5.43 8.99805C5.30969 8.99805 5.21125 9.09648 5.21125 9.2168V10.024C5.21125 10.1443 5.30969 10.2427 5.43 10.2427ZM5.43 10.4921C5.29219 10.4921 5.18281 10.6037 5.18281 10.7393C5.18281 10.8749 5.29437 10.9887 5.43 10.9887C5.56562 10.9887 5.67719 10.8771 5.67719 10.7393C5.67719 10.6015 5.56562 10.4921 5.43 10.4921Z" fill="white"/>
<mask id="path-2-outside-1_398_3440" maskUnits="userSpaceOnUse" x="2.08937" y="-0.0649414" width="11" height="14" fill="black">
<rect fill="white" x="2.08937" y="-0.0649414" width="11" height="14"/>
<path d="M4.40844 4.7435C4.24251 4.7435 4.08338 4.80941 3.96605 4.92674C3.84873 5.04406 3.78281 5.2032 3.78281 5.36912V7.02943C3.38906 7.13006 3.08937 7.47131 3.08937 7.89787V10.4091C3.08937 10.9122 3.49844 11.3213 4.00156 11.3213H4.06062V12.4829C4.06062 12.8701 4.37562 13.1851 4.76281 13.1851H6.10156C6.41219 13.1851 6.66594 12.9794 6.76 12.7016H11.6228C12.1259 12.7016 12.535 12.2926 12.535 11.7894V9.27818C12.535 8.77506 12.1259 8.366 11.6228 8.366H11.5922V4.80037C11.8217 4.64945 12.0102 4.44395 12.1407 4.20229C12.2713 3.96063 12.3399 3.69036 12.3403 3.41568C12.3403 2.9935 12.1806 2.591 11.8919 2.28475C11.7344 2.11631 11.5375 2.06381 11.3669 2.14037C11.1831 2.2235 11.0847 2.43568 11.1131 2.69162L11.1569 3.12256C11.17 3.25381 11.1109 3.35225 11.0562 3.41131C10.8681 3.61912 10.4853 3.61912 10.2994 3.41131C10.2469 3.35225 10.1856 3.25381 10.1987 3.12256L10.2425 2.69162C10.2709 2.41162 10.0566 2.20818 9.92531 2.13381C9.8998 2.11884 9.87146 2.10936 9.84208 2.10597C9.8127 2.10258 9.78293 2.10536 9.75469 2.11412C9.72406 2.12287 9.56219 2.17318 9.46156 2.28475C9.17281 2.591 9.01531 2.9935 9.01312 3.41787C9.01312 3.97568 9.2975 4.49412 9.76125 4.80037V6.83912C9.62781 6.76693 9.48125 6.71662 9.31281 6.71662C8.88844 6.71662 8.63031 7.00756 8.45312 7.29631H7.89094L7.32 6.19818C7.14062 5.85475 6.87156 5.33631 6.305 5.33631C6.13656 5.33631 5.98781 5.38662 5.85656 5.45881V5.37131C5.85656 5.02568 5.57437 4.74568 5.23094 4.74568H5.03844V2.21912H5.05375C5.17406 2.21912 5.2725 2.12068 5.2725 2.00037C5.2725 1.88006 5.17406 1.78162 5.05375 1.78162H5.03844V1.15381C5.03844 1.0335 4.94 0.935059 4.81969 0.935059C4.69937 0.935059 4.60094 1.0335 4.60094 1.15381V1.78162H4.58562C4.46531 1.78162 4.36687 1.88006 4.36687 2.00037C4.36687 2.12068 4.46531 2.21912 4.58562 2.21912H4.60094V4.7435H4.40844ZM6.09937 12.7476H4.76062C4.61406 12.7476 4.49594 12.6294 4.49594 12.4829V8.89318C4.49594 8.74443 4.61187 8.6285 4.76062 8.6285H6.09937C6.24812 8.6285 6.36406 8.74443 6.36406 8.89318V12.4829C6.36406 12.6294 6.24594 12.7476 6.09937 12.7476ZM9.45062 3.41568C9.45062 3.10506 9.56875 2.80975 9.78094 2.58225L9.76125 3.07881C9.73719 3.30631 9.81375 3.52943 9.97125 3.70443C10.1462 3.89912 10.4087 4.01506 10.6756 4.01506C10.9425 4.01506 11.2028 3.89912 11.3778 3.70443C11.5375 3.52725 11.6119 3.30631 11.5878 3.07662C11.5397 2.6085 11.5353 2.6085 11.5463 2.56037C11.7278 2.71568 11.8984 3.05912 11.8984 3.4135C11.8984 3.85975 11.6534 4.26881 11.2641 4.48318C11.1941 4.52256 11.1503 4.59475 11.1503 4.67568V8.366H10.8922V5.13725C10.8922 5.01693 10.7937 4.9185 10.6734 4.9185C10.5531 4.9185 10.4547 5.01693 10.4547 5.13725V8.366H10.1966V4.67568C10.1966 4.59693 10.1528 4.52256 10.0828 4.48318C9.89137 4.37812 9.73157 4.2237 9.62001 4.03597C9.50845 3.84824 9.4492 3.63406 9.44844 3.41568H9.45062ZM9.31281 7.15193C9.45719 7.15193 9.57531 7.19568 9.65406 7.281C9.73719 7.37068 9.77437 7.50193 9.76344 7.67693V8.58475C9.76344 8.70506 9.86187 8.8035 9.98219 8.8035H11.6206C11.8831 8.8035 12.0953 9.01568 12.0953 9.27818V11.7894C12.0953 12.0519 11.8831 12.2641 11.6206 12.2641H6.80156V9.11193H7.86031C7.94125 9.11193 8.01562 9.066 8.055 8.99381L8.68719 7.77756C8.89719 7.37287 9.05906 7.15193 9.31281 7.15193ZM5.96594 5.90068C6.04469 5.81756 6.16281 5.77162 6.30719 5.77162C6.55875 5.77162 6.72281 5.99256 6.93281 6.39725L7.565 7.6135C7.60219 7.68568 7.67656 7.73162 7.75969 7.73162H8.21906L7.72906 8.67443H6.75781C6.66375 8.39662 6.41 8.191 6.09937 8.191H4.76062C4.37344 8.191 4.05844 8.506 4.05844 8.89318V10.8838H3.99937C3.73687 10.8838 3.52469 10.6716 3.52469 10.4091V7.89787C3.52469 7.631 3.7325 7.42318 3.99937 7.42318H5.63781C5.75812 7.42318 5.85656 7.32475 5.85656 7.20443V6.27256C5.84781 6.11725 5.88281 5.986 5.96594 5.8985V5.90068ZM5.41906 5.36912V6.98568H4.21812V5.36912C4.21812 5.26631 4.30344 5.181 4.40625 5.181H5.22875C5.33375 5.181 5.41687 5.26631 5.41687 5.36912H5.41906Z"/>
</mask>
<path d="M4.40844 4.7435C4.24251 4.7435 4.08338 4.80941 3.96605 4.92674C3.84873 5.04406 3.78281 5.2032 3.78281 5.36912V7.02943C3.38906 7.13006 3.08937 7.47131 3.08937 7.89787V10.4091C3.08937 10.9122 3.49844 11.3213 4.00156 11.3213H4.06062V12.4829C4.06062 12.8701 4.37562 13.1851 4.76281 13.1851H6.10156C6.41219 13.1851 6.66594 12.9794 6.76 12.7016H11.6228C12.1259 12.7016 12.535 12.2926 12.535 11.7894V9.27818C12.535 8.77506 12.1259 8.366 11.6228 8.366H11.5922V4.80037C11.8217 4.64945 12.0102 4.44395 12.1407 4.20229C12.2713 3.96063 12.3399 3.69036 12.3403 3.41568C12.3403 2.9935 12.1806 2.591 11.8919 2.28475C11.7344 2.11631 11.5375 2.06381 11.3669 2.14037C11.1831 2.2235 11.0847 2.43568 11.1131 2.69162L11.1569 3.12256C11.17 3.25381 11.1109 3.35225 11.0562 3.41131C10.8681 3.61912 10.4853 3.61912 10.2994 3.41131C10.2469 3.35225 10.1856 3.25381 10.1987 3.12256L10.2425 2.69162C10.2709 2.41162 10.0566 2.20818 9.92531 2.13381C9.8998 2.11884 9.87146 2.10936 9.84208 2.10597C9.8127 2.10258 9.78293 2.10536 9.75469 2.11412C9.72406 2.12287 9.56219 2.17318 9.46156 2.28475C9.17281 2.591 9.01531 2.9935 9.01312 3.41787C9.01312 3.97568 9.2975 4.49412 9.76125 4.80037V6.83912C9.62781 6.76693 9.48125 6.71662 9.31281 6.71662C8.88844 6.71662 8.63031 7.00756 8.45312 7.29631H7.89094L7.32 6.19818C7.14062 5.85475 6.87156 5.33631 6.305 5.33631C6.13656 5.33631 5.98781 5.38662 5.85656 5.45881V5.37131C5.85656 5.02568 5.57437 4.74568 5.23094 4.74568H5.03844V2.21912H5.05375C5.17406 2.21912 5.2725 2.12068 5.2725 2.00037C5.2725 1.88006 5.17406 1.78162 5.05375 1.78162H5.03844V1.15381C5.03844 1.0335 4.94 0.935059 4.81969 0.935059C4.69937 0.935059 4.60094 1.0335 4.60094 1.15381V1.78162H4.58562C4.46531 1.78162 4.36687 1.88006 4.36687 2.00037C4.36687 2.12068 4.46531 2.21912 4.58562 2.21912H4.60094V4.7435H4.40844ZM6.09937 12.7476H4.76062C4.61406 12.7476 4.49594 12.6294 4.49594 12.4829V8.89318C4.49594 8.74443 4.61187 8.6285 4.76062 8.6285H6.09937C6.24812 8.6285 6.36406 8.74443 6.36406 8.89318V12.4829C6.36406 12.6294 6.24594 12.7476 6.09937 12.7476ZM9.45062 3.41568C9.45062 3.10506 9.56875 2.80975 9.78094 2.58225L9.76125 3.07881C9.73719 3.30631 9.81375 3.52943 9.97125 3.70443C10.1462 3.89912 10.4087 4.01506 10.6756 4.01506C10.9425 4.01506 11.2028 3.89912 11.3778 3.70443C11.5375 3.52725 11.6119 3.30631 11.5878 3.07662C11.5397 2.6085 11.5353 2.6085 11.5463 2.56037C11.7278 2.71568 11.8984 3.05912 11.8984 3.4135C11.8984 3.85975 11.6534 4.26881 11.2641 4.48318C11.1941 4.52256 11.1503 4.59475 11.1503 4.67568V8.366H10.8922V5.13725C10.8922 5.01693 10.7937 4.9185 10.6734 4.9185C10.5531 4.9185 10.4547 5.01693 10.4547 5.13725V8.366H10.1966V4.67568C10.1966 4.59693 10.1528 4.52256 10.0828 4.48318C9.89137 4.37812 9.73157 4.2237 9.62001 4.03597C9.50845 3.84824 9.4492 3.63406 9.44844 3.41568H9.45062ZM9.31281 7.15193C9.45719 7.15193 9.57531 7.19568 9.65406 7.281C9.73719 7.37068 9.77437 7.50193 9.76344 7.67693V8.58475C9.76344 8.70506 9.86187 8.8035 9.98219 8.8035H11.6206C11.8831 8.8035 12.0953 9.01568 12.0953 9.27818V11.7894C12.0953 12.0519 11.8831 12.2641 11.6206 12.2641H6.80156V9.11193H7.86031C7.94125 9.11193 8.01562 9.066 8.055 8.99381L8.68719 7.77756C8.89719 7.37287 9.05906 7.15193 9.31281 7.15193ZM5.96594 5.90068C6.04469 5.81756 6.16281 5.77162 6.30719 5.77162C6.55875 5.77162 6.72281 5.99256 6.93281 6.39725L7.565 7.6135C7.60219 7.68568 7.67656 7.73162 7.75969 7.73162H8.21906L7.72906 8.67443H6.75781C6.66375 8.39662 6.41 8.191 6.09937 8.191H4.76062C4.37344 8.191 4.05844 8.506 4.05844 8.89318V10.8838H3.99937C3.73687 10.8838 3.52469 10.6716 3.52469 10.4091V7.89787C3.52469 7.631 3.7325 7.42318 3.99937 7.42318H5.63781C5.75812 7.42318 5.85656 7.32475 5.85656 7.20443V6.27256C5.84781 6.11725 5.88281 5.986 5.96594 5.8985V5.90068ZM5.41906 5.36912V6.98568H4.21812V5.36912C4.21812 5.26631 4.30344 5.181 4.40625 5.181H5.22875C5.33375 5.181 5.41687 5.26631 5.41687 5.36912H5.41906Z" fill="white"/>
<path d="M4.40844 4.7435C4.24251 4.7435 4.08338 4.80941 3.96605 4.92674C3.84873 5.04406 3.78281 5.2032 3.78281 5.36912V7.02943C3.38906 7.13006 3.08937 7.47131 3.08937 7.89787V10.4091C3.08937 10.9122 3.49844 11.3213 4.00156 11.3213H4.06062V12.4829C4.06062 12.8701 4.37562 13.1851 4.76281 13.1851H6.10156C6.41219 13.1851 6.66594 12.9794 6.76 12.7016H11.6228C12.1259 12.7016 12.535 12.2926 12.535 11.7894V9.27818C12.535 8.77506 12.1259 8.366 11.6228 8.366H11.5922V4.80037C11.8217 4.64945 12.0102 4.44395 12.1407 4.20229C12.2713 3.96063 12.3399 3.69036 12.3403 3.41568C12.3403 2.9935 12.1806 2.591 11.8919 2.28475C11.7344 2.11631 11.5375 2.06381 11.3669 2.14037C11.1831 2.2235 11.0847 2.43568 11.1131 2.69162L11.1569 3.12256C11.17 3.25381 11.1109 3.35225 11.0562 3.41131C10.8681 3.61912 10.4853 3.61912 10.2994 3.41131C10.2469 3.35225 10.1856 3.25381 10.1987 3.12256L10.2425 2.69162C10.2709 2.41162 10.0566 2.20818 9.92531 2.13381C9.8998 2.11884 9.87146 2.10936 9.84208 2.10597C9.8127 2.10258 9.78293 2.10536 9.75469 2.11412C9.72406 2.12287 9.56219 2.17318 9.46156 2.28475C9.17281 2.591 9.01531 2.9935 9.01312 3.41787C9.01312 3.97568 9.2975 4.49412 9.76125 4.80037V6.83912C9.62781 6.76693 9.48125 6.71662 9.31281 6.71662C8.88844 6.71662 8.63031 7.00756 8.45312 7.29631H7.89094L7.32 6.19818C7.14062 5.85475 6.87156 5.33631 6.305 5.33631C6.13656 5.33631 5.98781 5.38662 5.85656 5.45881V5.37131C5.85656 5.02568 5.57437 4.74568 5.23094 4.74568H5.03844V2.21912H5.05375C5.17406 2.21912 5.2725 2.12068 5.2725 2.00037C5.2725 1.88006 5.17406 1.78162 5.05375 1.78162H5.03844V1.15381C5.03844 1.0335 4.94 0.935059 4.81969 0.935059C4.69937 0.935059 4.60094 1.0335 4.60094 1.15381V1.78162H4.58562C4.46531 1.78162 4.36687 1.88006 4.36687 2.00037C4.36687 2.12068 4.46531 2.21912 4.58562 2.21912H4.60094V4.7435H4.40844ZM6.09937 12.7476H4.76062C4.61406 12.7476 4.49594 12.6294 4.49594 12.4829V8.89318C4.49594 8.74443 4.61187 8.6285 4.76062 8.6285H6.09937C6.24812 8.6285 6.36406 8.74443 6.36406 8.89318V12.4829C6.36406 12.6294 6.24594 12.7476 6.09937 12.7476ZM9.45062 3.41568C9.45062 3.10506 9.56875 2.80975 9.78094 2.58225L9.76125 3.07881C9.73719 3.30631 9.81375 3.52943 9.97125 3.70443C10.1462 3.89912 10.4087 4.01506 10.6756 4.01506C10.9425 4.01506 11.2028 3.89912 11.3778 3.70443C11.5375 3.52725 11.6119 3.30631 11.5878 3.07662C11.5397 2.6085 11.5353 2.6085 11.5463 2.56037C11.7278 2.71568 11.8984 3.05912 11.8984 3.4135C11.8984 3.85975 11.6534 4.26881 11.2641 4.48318C11.1941 4.52256 11.1503 4.59475 11.1503 4.67568V8.366H10.8922V5.13725C10.8922 5.01693 10.7937 4.9185 10.6734 4.9185C10.5531 4.9185 10.4547 5.01693 10.4547 5.13725V8.366H10.1966V4.67568C10.1966 4.59693 10.1528 4.52256 10.0828 4.48318C9.89137 4.37812 9.73157 4.2237 9.62001 4.03597C9.50845 3.84824 9.4492 3.63406 9.44844 3.41568H9.45062ZM9.31281 7.15193C9.45719 7.15193 9.57531 7.19568 9.65406 7.281C9.73719 7.37068 9.77437 7.50193 9.76344 7.67693V8.58475C9.76344 8.70506 9.86187 8.8035 9.98219 8.8035H11.6206C11.8831 8.8035 12.0953 9.01568 12.0953 9.27818V11.7894C12.0953 12.0519 11.8831 12.2641 11.6206 12.2641H6.80156V9.11193H7.86031C7.94125 9.11193 8.01562 9.066 8.055 8.99381L8.68719 7.77756C8.89719 7.37287 9.05906 7.15193 9.31281 7.15193ZM5.96594 5.90068C6.04469 5.81756 6.16281 5.77162 6.30719 5.77162C6.55875 5.77162 6.72281 5.99256 6.93281 6.39725L7.565 7.6135C7.60219 7.68568 7.67656 7.73162 7.75969 7.73162H8.21906L7.72906 8.67443H6.75781C6.66375 8.39662 6.41 8.191 6.09937 8.191H4.76062C4.37344 8.191 4.05844 8.506 4.05844 8.89318V10.8838H3.99937C3.73687 10.8838 3.52469 10.6716 3.52469 10.4091V7.89787C3.52469 7.631 3.7325 7.42318 3.99937 7.42318H5.63781C5.75812 7.42318 5.85656 7.32475 5.85656 7.20443V6.27256C5.84781 6.11725 5.88281 5.986 5.96594 5.8985V5.90068ZM5.41906 5.36912V6.98568H4.21812V5.36912C4.21812 5.26631 4.30344 5.181 4.40625 5.181H5.22875C5.33375 5.181 5.41687 5.26631 5.41687 5.36912H5.41906Z" stroke="white" stroke-width="0.2" mask="url(#path-2-outside-1_398_3440)"/>
</g>
<defs>
<clipPath id="clip0_398_3440">
<rect width="14" height="14" fill="white" transform="translate(0.809999 0.0600586)"/>
</clipPath>
</defs>
</svg>
