<svg width="20" height="20" viewBox="0 0 20 20" fill="none" xmlns="http://www.w3.org/2000/svg">
<path d="M8.33333 2.5H11.6667C13.4348 2.5 15.1305 3.20238 16.3807 4.45262C17.631 5.70286 18.3333 7.39856 18.3333 9.16667C18.3333 10.9348 17.631 12.6305 16.3807 13.8807C15.1305 15.131 13.4348 15.8333 11.6667 15.8333V18.75C7.5 17.0833 1.66666 14.5833 1.66666 9.16667C1.66666 7.39856 2.36904 5.70286 3.61929 4.45262C4.86953 3.20238 6.56522 2.5 8.33333 2.5ZM10 14.1667H11.6667C12.3233 14.1667 12.9735 14.0373 13.5801 13.7861C14.1867 13.5348 14.7379 13.1665 15.2022 12.7022C15.6665 12.2379 16.0348 11.6867 16.2861 11.0801C16.5373 10.4735 16.6667 9.82328 16.6667 9.16667C16.6667 8.51006 16.5373 7.85988 16.2861 7.25325C16.0348 6.64662 15.6665 6.09543 15.2022 5.63113C14.7379 5.16684 14.1867 4.79854 13.5801 4.54727C12.9735 4.296 12.3233 4.16667 11.6667 4.16667H8.33333C7.00725 4.16667 5.73548 4.69345 4.7978 5.63113C3.86012 6.56881 3.33333 7.84058 3.33333 9.16667C3.33333 12.175 5.385 14.1383 10 16.2333V14.1667Z" fill="white"/>
<circle cx="16" cy="3" r="2" fill="#FF0000"/>
</svg>
