<svg width="90" height="90" viewBox="0 0 90 90" fill="none" xmlns="http://www.w3.org/2000/svg">
<path d="M64.6667 69.5833V64.6667H49.9167V49.9167H64.6667V59.75H74.5V69.5833H69.5833V79.4167H59.75V89.25H49.9167V74.5H59.75V69.5833H64.6667ZM89.25 89.25H69.5833V79.4167H79.4167V69.5833H89.25V89.25ZM0.75 0.75H40.0833V40.0833H0.75V0.75ZM10.5833 10.5833V30.25H30.25V10.5833H10.5833ZM49.9167 0.75H89.25V40.0833H49.9167V0.75ZM59.75 10.5833V30.25H79.4167V10.5833H59.75ZM0.75 49.9167H40.0833V89.25H0.75V49.9167ZM10.5833 59.75V79.4167H30.25V59.75H10.5833ZM74.5 49.9167H89.25V59.75H74.5V49.9167ZM15.5 15.5H25.3333V25.3333H15.5V15.5ZM15.5 64.6667H25.3333V74.5H15.5V64.6667ZM64.6667 15.5H74.5V25.3333H64.6667V15.5Z" fill="black"/>
</svg>
