<svg width="52" height="52" viewBox="0 0 52 52" fill="none" xmlns="http://www.w3.org/2000/svg">
<path d="M10.2915 3.25V43.3333H21.9482C22.5223 44.2 23.3782 44.85 24.3748 45.1967V48.75H27.6248V45.1967C28.6215 44.8392 29.4665 44.1892 30.0515 43.3333H41.7082V3.25H10.2915ZM25.9998 42.25C25.1007 42.25 24.3748 41.5242 24.3748 40.625C24.3748 39.7258 25.1007 39 25.9998 39C26.899 39 27.6248 39.7258 27.6248 40.625C27.6248 41.5242 26.899 42.25 25.9998 42.25ZM38.4582 40.0833H30.8207C30.5498 37.6567 28.5023 35.75 25.9998 35.75C23.4973 35.75 21.4498 37.6567 21.179 40.0833H13.5415V6.5H38.4582V40.0833Z" fill="#0FABFF"/>
<path d="M36.2918 11.9167H15.7085V15.1667H36.2918V11.9167Z" fill="#0FABFF"/>
<path d="M36.2918 16.25H15.7085V19.5H36.2918V16.25Z" fill="#0FABFF"/>
<path d="M24.3752 20.5833H15.7085V23.8333H24.3752V20.5833Z" fill="#0FABFF"/>
<path d="M24.3752 24.9167H15.7085V28.1667H24.3752V24.9167Z" fill="#0FABFF"/>
<path d="M24.3752 29.25H15.7085V32.5H24.3752V29.25Z" fill="#0FABFF"/>
<path d="M33.0415 20.8433H29.7915V21.9808C27.9607 22.2516 26.5415 23.8116 26.5415 25.7183C26.5415 27.8091 28.2423 29.5099 30.3332 29.5099H32.4998C32.8032 29.5099 33.0415 29.7483 33.0415 30.0516C33.0415 30.3549 32.8032 30.5933 32.4998 30.5933H29.7915H26.5415V33.8433H29.7915V34.9266H33.0415V33.7891C34.8723 33.5183 36.2915 31.9583 36.2915 30.0516C36.2915 27.9608 34.5907 26.2599 32.4998 26.2599H30.3332C30.0298 26.2599 29.7915 26.0216 29.7915 25.7183C29.7915 25.4149 30.0298 25.1766 30.3332 25.1766H33.0415H36.2915V21.9266H33.0415V20.8433Z" fill="#0FABFF"/>
</svg>
