<svg width="52" height="52" viewBox="0 0 52 52" fill="none" xmlns="http://www.w3.org/2000/svg">
<g clip-path="url(#clip0_35_81)">
<rect x="10.8335" y="13" width="30.3333" height="23.8333" fill="white"/>
<path d="M26 52C11.6402 52 0 40.3598 0 26C0 11.6402 11.6402 0 26 0C40.3598 0 52 11.6402 52 26C52 40.3598 40.3598 52 26 52ZM23.4078 36.4L41.7898 18.0154L38.1134 14.339L23.8333 28.1667L20.5833 24.9167L17.3333 20.5833L12.376 25.3682L23.4078 36.4Z" fill="#128807" fill-opacity="0.5"/>
<path d="M26.0002 47.6667C14.0337 47.6667 4.3335 37.9665 4.3335 26C4.3335 14.0335 14.0337 4.33337 26.0002 4.33337C37.9667 4.33337 47.6668 14.0335 47.6668 26C47.6668 37.9665 37.9667 47.6667 26.0002 47.6667ZM23.84 34.6667L39.1583 19.3462L36.0947 16.2825L23.84 28.5394L17.7105 22.4099L14.6468 25.4735L23.84 34.6667Z" fill="#34A853"/>
</g>
<defs>
<clipPath id="clip0_35_81">
<rect width="52" height="52" fill="white"/>
</clipPath>
</defs>
</svg>
