<svg width="20" height="20" viewBox="0 0 20 20" fill="none" xmlns="http://www.w3.org/2000/svg">
<path d="M1.66699 3.33333C1.66699 3.11232 1.75479 2.90036 1.91107 2.74408C2.06735 2.5878 2.27931 2.5 2.50033 2.5H17.5003C17.7213 2.5 17.9333 2.5878 18.0896 2.74408C18.2459 2.90036 18.3337 3.11232 18.3337 3.33333V7.91667C17.7811 7.91667 17.2512 8.13616 16.8605 8.52686C16.4698 8.91756 16.2503 9.44747 16.2503 10C16.2503 10.5525 16.4698 11.0824 16.8605 11.4731C17.2512 11.8638 17.7811 12.0833 18.3337 12.0833V16.6667C18.3337 16.8877 18.2459 17.0996 18.0896 17.2559C17.9333 17.4122 17.7213 17.5 17.5003 17.5H2.50033C2.27931 17.5 2.06735 17.4122 1.91107 17.2559C1.75479 17.0996 1.66699 16.8877 1.66699 16.6667V3.33333ZM6.73783 15.8333C6.82372 15.5892 6.98328 15.3777 7.1945 15.2281C7.40572 15.0785 7.65816 14.9981 7.91699 14.9981C8.17582 14.9981 8.42827 15.0785 8.63948 15.2281C8.8507 15.3777 9.01027 15.5892 9.09616 15.8333H16.667V13.36C16.041 13.0498 15.5141 12.5708 15.1457 11.9771C14.7774 11.3834 14.5822 10.6987 14.5822 10C14.5822 9.30133 14.7774 8.61656 15.1457 8.02288C15.5141 7.42921 16.041 6.95025 16.667 6.64V4.16667H9.09616C9.01027 4.41083 8.8507 4.62231 8.63948 4.77191C8.42827 4.92151 8.17582 5.00186 7.91699 5.00186C7.65816 5.00186 7.40572 4.92151 7.1945 4.77191C6.98328 4.62231 6.82372 4.41083 6.73783 4.16667H3.33366V15.8333H6.73783ZM7.91699 9.16667C7.58547 9.16667 7.26753 9.03497 7.03311 8.80055C6.79869 8.56613 6.66699 8.24819 6.66699 7.91667C6.66699 7.58515 6.79869 7.2672 7.03311 7.03278C7.26753 6.79836 7.58547 6.66667 7.91699 6.66667C8.24851 6.66667 8.56646 6.79836 8.80088 7.03278C9.0353 7.2672 9.16699 7.58515 9.16699 7.91667C9.16699 8.24819 9.0353 8.56613 8.80088 8.80055C8.56646 9.03497 8.24851 9.16667 7.91699 9.16667ZM7.91699 13.3333C7.58547 13.3333 7.26753 13.2016 7.03311 12.9672C6.79869 12.7328 6.66699 12.4149 6.66699 12.0833C6.66699 11.7518 6.79869 11.4339 7.03311 11.1994C7.26753 10.965 7.58547 10.8333 7.91699 10.8333C8.24851 10.8333 8.56646 10.965 8.80088 11.1994C9.0353 11.4339 9.16699 11.7518 9.16699 12.0833C9.16699 12.4149 9.0353 12.7328 8.80088 12.9672C8.56646 13.2016 8.24851 13.3333 7.91699 13.3333Z" fill="#34A853"/>
</svg>
