<svg width="52" height="52" viewBox="0 0 52 52" fill="none" xmlns="http://www.w3.org/2000/svg">
<g clip-path="url(#clip0_398_2912)">
<path d="M20.3125 32.5C18.2 32.3375 16.25 31.85 14.3 31.525L12.025 30.875C11.7 30.7125 11.375 30.3875 11.375 30.0625V14.625C11.375 6.5 17.875 0 26 0C34.125 0 40.625 6.5 40.625 14.625V30.0625C40.625 30.3875 40.3 30.7125 39.975 30.875L37.7 31.3625C35.9125 31.85 33.9625 32.175 32.175 32.3375C31.6875 32.3375 31.3625 32.0125 31.2 31.6875C31.2 31.2 31.525 30.875 31.85 30.7125C33.6375 30.55 35.425 30.225 37.2125 29.7375L38.8375 29.4125V14.625C38.8375 7.475 32.9875 1.625 25.8375 1.625C18.6875 1.625 13 7.475 13 14.625V29.4125L14.625 29.7375C16.575 30.225 18.525 30.55 20.475 30.7125C20.9625 30.7125 21.2875 31.2 21.125 31.6875C21.125 32.175 20.8 32.5 20.3125 32.5Z" fill="#0FABFF"/>
<path d="M36.5625 16.25C36.075 16.25 35.75 15.925 35.75 15.4375V13.975C35.75 13.8125 35.5875 13.4875 35.425 13.325C35.2625 13.1625 35.1 13.1625 34.775 13.1625L30.875 13.65C26.4875 14.3 22.1 13.1625 18.6875 10.4V12.025C18.6875 14.3 16.9 16.0875 14.625 16.0875H12.1875C11.7 16.25 11.375 15.925 11.375 15.4375C11.375 14.95 11.7 14.625 12.1875 14.625H14.625C15.925 14.625 17.0625 13.4875 17.0625 12.1875V10.5625C17.0625 9.9125 17.3875 9.425 18.0375 9.1C18.525 8.775 19.175 8.9375 19.6625 9.2625C22.9125 11.7 26.8125 12.675 30.7125 12.1875L34.6125 11.7C35.2625 11.5375 36.075 11.8625 36.5625 12.35C37.05 12.675 37.375 13.325 37.375 13.975V15.4375C37.375 15.925 37.05 16.25 36.5625 16.25ZM26 39H25.675C25.025 38.675 19.5 36.075 19.5 32.5V28.4375C19.5 27.95 19.825 27.625 20.3125 27.625C20.8 27.625 21.125 27.95 21.125 28.4375V32.5C21.125 34.45 24.375 36.5625 26 37.2125C27.625 36.4 30.875 34.45 30.875 32.5V28.4375C30.875 27.95 31.2 27.625 31.6875 27.625C32.175 27.625 32.5 27.95 32.5 28.4375V32.5C32.5 36.075 26.975 38.675 26.325 39H26Z" fill="#0FABFF"/>
<path d="M26 30.875C19.6625 30.875 14.625 25.8375 14.625 19.5V15.4375C14.625 14.95 14.95 14.625 15.4375 14.625C15.925 14.625 16.25 14.95 16.25 15.4375V19.5C16.25 24.8625 20.6375 29.25 26 29.25C31.3625 29.25 35.75 24.8625 35.75 19.5V15.4375C35.75 14.95 36.075 14.625 36.5625 14.625C37.05 14.625 37.375 14.95 37.375 15.4375V19.5C37.375 25.8375 32.3375 30.875 26 30.875ZM46.3125 52H5.6875C5.2 52 4.875 51.675 4.875 51.1875V44.0375C4.875 40.1375 7.3125 36.725 11.05 35.5875L20.15 32.5C20.6375 32.3375 20.9625 32.6625 21.125 32.9875C21.2875 33.475 20.9625 33.8 20.6375 33.9625L11.5375 37.05C8.45 38.025 6.5 40.95 6.5 44.0375V50.375H45.5V44.0375C45.5 40.95 43.55 38.025 40.4625 37.05L31.3625 34.125C30.875 33.9625 30.7125 33.475 30.875 33.15C31.0375 32.6625 31.525 32.5 31.85 32.6625L40.95 35.75C44.6875 36.8875 47.125 40.3 47.125 44.2V51.35C47.125 51.675 46.8 52 46.3125 52Z" fill="#0FABFF"/>
<path d="M46.3125 52H36.5625C36.075 52 35.75 51.675 35.75 51.1875V49.5625C35.75 44.2 39.8125 39.65 45.0125 39.1625C45.3375 39.1625 45.6625 39.325 45.825 39.4875C46.6375 40.95 47.125 42.4125 47.125 44.0375V51.1875C47.125 51.675 46.8 52 46.3125 52ZM37.375 50.375H45.5V44.0375C45.5 42.9 45.175 41.7625 44.6875 40.7875C40.4625 41.6 37.375 45.175 37.375 49.5625V50.375ZM15.4375 52H5.6875C5.2 52 4.875 51.675 4.875 51.1875V44.0375C4.875 42.4125 5.3625 40.7875 6.175 39.4875C6.3375 39.1625 6.6625 39 6.9875 39.1625C12.35 39.8125 16.25 44.3625 16.25 49.5625V51.1875C16.25 51.675 15.925 52 15.4375 52ZM6.5 50.375H14.625V49.5625C14.625 45.175 11.5375 41.6 7.3125 40.7875C6.825 41.7625 6.5 42.9 6.5 44.0375V50.375ZM39.8125 21.125H36.5625C36.075 21.125 35.75 20.8 35.75 20.3125V15.4375C35.75 14.95 36.075 14.625 36.5625 14.625H38.1875C39.4875 14.625 40.625 15.7625 40.625 17.0625V20.3125C40.625 20.8 40.3 21.125 39.8125 21.125ZM37.375 19.5H39V17.0625C39 16.575 38.675 16.25 38.1875 16.25H37.375V19.5Z" fill="#0FABFF"/>
<path d="M34.9375 26H30.0625C29.575 26 29.25 25.675 29.25 25.1875C29.25 24.7 29.575 24.375 30.0625 24.375H34.9375C37.2125 24.375 39 22.5875 39 20.3125V17.0625C39 16.575 39.325 16.25 39.8125 16.25C40.3 16.25 40.625 16.575 40.625 17.0625V20.3125C40.625 23.4 38.025 26 34.9375 26ZM15.4375 21.125H13.8125C12.5125 21.125 11.375 19.9875 11.375 18.6875V17.0625C11.375 15.7625 12.5125 14.625 13.8125 14.625H15.4375C15.925 14.625 16.25 14.95 16.25 15.4375V20.3125C16.25 20.8 15.925 21.125 15.4375 21.125ZM13.8125 16.25C13.325 16.25 13 16.575 13 17.0625V18.6875C13 19.175 13.325 19.5 13.8125 19.5H14.625V16.25H13.8125Z" fill="#0FABFF"/>
<path d="M28.4375 27.625H26.8125C25.5125 27.625 24.375 26.4875 24.375 25.1875C24.375 23.8875 25.5125 22.75 26.8125 22.75H28.4375C29.7375 22.75 30.875 23.8875 30.875 25.1875C30.875 26.4875 29.7375 27.625 28.4375 27.625ZM26.8125 24.375C26.325 24.375 26 24.7 26 25.1875C26 25.675 26.325 26 26.8125 26H28.4375C28.925 26 29.25 25.675 29.25 25.1875C29.25 24.7 28.925 24.375 28.4375 24.375H26.8125ZM25.1875 52C24.8625 52 24.5375 51.8375 24.375 51.35L19.5 33.475C19.3375 32.9875 19.6625 32.6625 20.15 32.5C20.6375 32.3375 20.9625 32.6625 21.125 33.15L26 51.025C26.1625 51.5125 25.8375 51.8375 25.35 52H25.1875ZM20.3125 52C19.9875 52 19.6625 51.8375 19.5 51.5125L16.7375 43.225C16.575 42.9 16.7375 42.7375 16.9 42.4125L17.55 41.6L16.0875 40.625L15.7625 40.3L14.1375 35.5875C13.975 35.1 14.3 34.775 14.625 34.6125C15.1125 34.45 15.4375 34.775 15.6 35.1L17.0625 39.65L19.0125 41.1125C19.175 41.275 19.3375 41.4375 19.3375 41.6C19.3375 41.7625 19.3375 42.0875 19.175 42.25L18.3625 43.3875L20.9625 51.1875C21.125 51.675 20.8 52 20.475 52.1625C20.475 52 20.475 52 20.3125 52Z" fill="#0FABFF"/>
<path d="M25.9999 52H25.6749C25.1874 51.8375 25.0249 51.35 25.1874 51.025L30.8749 33.15C31.0374 32.6625 31.5249 32.5 31.8499 32.6625C32.3374 32.825 32.4999 33.3125 32.3374 33.6375L26.6499 51.5125C26.6499 51.8375 26.3249 52 25.9999 52ZM30.8749 52H30.5499C30.0624 51.8375 29.8999 51.35 30.0624 51.025L32.6624 43.225L31.8499 42.0875C31.6874 41.925 31.6874 41.7625 31.6874 41.4375C31.6874 41.275 31.8499 41.1125 32.0124 40.95L33.9624 39.4875L35.5874 34.775C35.7499 34.2875 36.2374 34.125 36.5624 34.2875C37.0499 34.45 37.2124 34.9375 37.0499 35.2625L35.4249 40.3C35.4249 40.4625 35.2624 40.625 35.0999 40.625L33.6374 41.7625L34.2874 42.575C34.4499 42.7375 34.4499 43.0625 34.4499 43.3875L31.6874 51.675C31.5249 51.8375 31.1999 52 30.8749 52Z" fill="#0FABFF"/>
</g>
<defs>
<clipPath id="clip0_398_2912">
<rect width="52" height="52" fill="white"/>
</clipPath>
</defs>
</svg>
