<svg width="52" height="52" viewBox="0 0 52 52" fill="none" xmlns="http://www.w3.org/2000/svg">
<path d="M47.45 11.7H4.55C4.20522 11.7 3.87456 11.8369 3.63076 12.0807C3.38696 12.3245 3.25 12.6552 3.25 13V39C3.25 39.3447 3.38696 39.6754 3.63076 39.9192C3.87456 40.163 4.20522 40.3 4.55 40.3H47.45C47.7948 40.3 48.1254 40.163 48.3692 39.9192C48.613 39.6754 48.75 39.3447 48.75 39V13C48.75 12.6552 48.613 12.3245 48.3692 12.0807C48.1254 11.8369 47.7948 11.7 47.45 11.7ZM5.85 14.3H9.57905C9.34548 15.1971 8.87674 16.0157 8.22122 16.6712C7.5657 17.3267 6.74714 17.7954 5.85 18.029V14.3ZM5.85 37.7V33.9709C6.74714 34.2045 7.5657 34.6732 8.22122 35.3287C8.87674 35.9843 9.34548 36.8028 9.57905 37.7H5.85ZM46.15 37.7H42.4209C42.6545 36.8028 43.1233 35.9843 43.7788 35.3287C44.4343 34.6732 45.2529 34.2045 46.15 33.9709V37.7ZM46.15 31.3085C42.8883 31.8578 40.3078 34.4383 39.7585 37.7H12.2414C11.6922 34.4383 9.1117 31.8578 5.85 31.3085V20.6914C9.1117 20.1422 11.6922 17.5617 12.2414 14.3H39.7585C40.3078 17.5617 42.8883 20.1422 46.15 20.6914V31.3085ZM46.15 18.029C45.2529 17.7954 44.4343 17.3267 43.7788 16.6712C43.1233 16.0157 42.6545 15.1971 42.4209 14.3H46.15V18.029Z" fill="#0FABFF"/>
<path d="M24.0498 20.8H27.9498C28.6668 20.8 29.2498 21.3831 29.2498 22.1H31.8498C31.8498 19.9492 30.1007 18.2 27.9498 18.2H27.2998V16.9H24.6998V18.2H24.0498C21.899 18.2 20.1498 19.9492 20.1498 22.1V23.4C20.1498 25.5509 21.899 27.3 24.0498 27.3H27.9498C28.6668 27.3 29.2498 27.8831 29.2498 28.6V29.9C29.2498 30.617 28.6668 31.2 27.9498 31.2H24.0498C23.3329 31.2 22.7498 30.617 22.7498 29.9H20.1498C20.1498 32.0509 21.899 33.8 24.0498 33.8H24.6998V35.1H27.2998V33.8H27.9498C30.1007 33.8 31.8498 32.0509 31.8498 29.9V28.6C31.8498 26.4492 30.1007 24.7 27.9498 24.7H24.0498C23.3329 24.7 22.7498 24.117 22.7498 23.4V22.1C22.7498 21.3831 23.3329 20.8 24.0498 20.8ZM36.3998 26C36.3998 28.1509 38.149 29.9 40.2998 29.9C42.4507 29.9 44.1998 28.1509 44.1998 26C44.1998 23.8492 42.4507 22.1 40.2998 22.1C38.149 22.1 36.3998 23.8492 36.3998 26ZM41.5998 26C41.5998 26.717 41.0168 27.3 40.2998 27.3C39.5829 27.3 38.9998 26.717 38.9998 26C38.9998 25.2831 39.5829 24.7 40.2998 24.7C41.0168 24.7 41.5998 25.2831 41.5998 26ZM11.6998 22.1C9.54895 22.1 7.7998 23.8492 7.7998 26C7.7998 28.1509 9.54895 29.9 11.6998 29.9C13.8507 29.9 15.5998 28.1509 15.5998 26C15.5998 23.8492 13.8507 22.1 11.6998 22.1ZM11.6998 27.3C10.9829 27.3 10.3998 26.717 10.3998 26C10.3998 25.2831 10.9829 24.7 11.6998 24.7C12.4168 24.7 12.9998 25.2831 12.9998 26C12.9998 26.717 12.4168 27.3 11.6998 27.3ZM33.3071 9.74547C33.3496 9.91088 33.4243 10.0663 33.5269 10.2028C33.6295 10.3394 33.758 10.4544 33.905 10.5412C34.052 10.6281 34.2148 10.6851 34.3839 10.7091C34.553 10.733 34.7251 10.7234 34.8905 10.6808L38.667 9.70907C38.7554 9.68632 38.8399 9.65317 38.9205 9.61352C38.942 9.60247 38.9615 9.58752 38.9829 9.57517C39.0448 9.54088 39.1037 9.50153 39.1591 9.45752C39.1851 9.43672 39.2085 9.41332 39.2325 9.38992C39.2819 9.34377 39.3268 9.29437 39.3684 9.24042C39.3801 9.22547 39.395 9.21442 39.4061 9.19817C39.4158 9.18517 39.4217 9.16957 39.4308 9.15527C39.4405 9.14032 39.4535 9.12732 39.4633 9.11172C39.4769 9.08702 39.4854 9.06102 39.4977 9.03632C39.5172 8.99797 39.5361 8.96027 39.551 8.92127C39.566 8.88292 39.577 8.84392 39.5887 8.80427C39.6011 8.76137 39.6128 8.71912 39.6199 8.67557C39.6264 8.63657 39.6303 8.59822 39.6336 8.55922C39.6375 8.51437 39.6401 8.47017 39.6401 8.42467C39.6386 8.38576 39.6353 8.34693 39.6303 8.30832C39.6259 8.26358 39.6192 8.2191 39.6102 8.17507C39.6063 8.15882 39.6069 8.14257 39.6024 8.12632L38.6306 4.34982C38.5885 4.18409 38.514 4.02831 38.4116 3.89139C38.3091 3.75448 38.1807 3.63912 38.0336 3.55193C37.8865 3.46474 37.7236 3.40743 37.5543 3.38328C37.385 3.35913 37.2126 3.36861 37.047 3.41119C36.8814 3.45377 36.7258 3.52861 36.5892 3.63141C36.4525 3.73422 36.3375 3.86298 36.2507 4.01031C36.1639 4.15764 36.107 4.32065 36.0833 4.49C36.0596 4.65935 36.0695 4.83171 36.1125 4.99722L36.2965 5.71222C33.107 4.08933 29.5784 3.24553 25.9998 3.25002C21.2795 3.25002 16.7523 4.68067 12.9075 7.38662C12.6255 7.58513 12.4339 7.88754 12.3748 8.22733C12.3157 8.56712 12.3941 8.91646 12.5926 9.19849C12.7911 9.48052 13.0935 9.67215 13.4333 9.73121C13.7731 9.79027 14.1224 9.71193 14.4045 9.51342C17.8085 7.11622 21.8184 5.85002 25.9998 5.85002C29.1627 5.85002 32.2255 6.57672 35.0036 7.96707L34.2425 8.16337C33.9087 8.24923 33.6227 8.46411 33.4473 8.76078C33.2719 9.05746 33.2215 9.41164 33.3071 9.74547ZM18.6925 42.2546C18.6502 42.0891 18.5756 41.9335 18.473 41.7969C18.3705 41.6603 18.242 41.5452 18.0949 41.4584C17.9478 41.3715 17.785 41.3145 17.6159 41.2906C17.4467 41.2667 17.2745 41.2764 17.1091 41.3192L13.3326 42.291C13.3092 42.2975 13.2884 42.3085 13.2663 42.3157C13.1859 42.3408 13.1082 42.3736 13.0343 42.4138C12.9595 42.4549 12.889 42.5033 12.8237 42.5581C12.7564 42.6145 12.6952 42.6777 12.641 42.7466C12.6254 42.7661 12.6072 42.7817 12.5936 42.8019C12.5838 42.8149 12.578 42.8305 12.5689 42.8448C12.5591 42.8597 12.5461 42.8727 12.5364 42.8883C12.5227 42.913 12.5143 42.939 12.5019 42.9637C12.4823 43.001 12.4645 43.0391 12.4486 43.0781C12.4337 43.1171 12.4226 43.1561 12.4109 43.1951C12.3983 43.2379 12.3878 43.2813 12.3797 43.3251C12.3732 43.3628 12.3693 43.4018 12.3661 43.4408C12.3622 43.4857 12.3596 43.5299 12.3596 43.5754C12.3609 43.6144 12.3648 43.6527 12.3693 43.6911C12.3739 43.7366 12.3797 43.7808 12.3895 43.825C12.3934 43.8412 12.3927 43.8575 12.3973 43.8737L13.369 47.6502C13.4556 47.9833 13.6707 48.2686 13.9673 48.4433C14.2638 48.618 14.6176 48.668 14.9509 48.5823C15.2843 48.4966 15.57 48.2822 15.7455 47.9861C15.921 47.69 15.9719 47.3364 15.8871 47.0028L15.7032 46.2878C18.8926 47.9107 22.4212 48.7545 25.9998 48.75C30.7201 48.75 35.2474 47.3194 39.0915 44.6134C39.3735 44.4149 39.5651 44.1125 39.6242 43.7727C39.6832 43.4329 39.6049 43.0836 39.4064 42.8015C39.2079 42.5195 38.9055 42.3279 38.5657 42.2688C38.2259 42.2098 37.8765 42.2881 37.5945 42.4866C34.1911 44.8838 30.1813 46.15 25.9998 46.15C22.8746 46.1554 19.7914 45.4304 16.996 44.033L17.7572 43.8367C18.0909 43.7508 18.377 43.5359 18.5524 43.2393C18.7277 42.9426 18.7782 42.5884 18.6925 42.2546Z" fill="#0FABFF"/>
</svg>
