<svg width="25" height="25" viewBox="0 0 25 25" fill="none" xmlns="http://www.w3.org/2000/svg">
<path fill-rule="evenodd" clip-rule="evenodd" d="M24.5 12.7841C24.5 11.8977 24.4205 11.0455 24.2727 10.2273H12.5V15.0625H19.2273C18.9375 16.625 18.0568 17.9489 16.733 18.8352V21.9716H20.7727C23.1364 19.7955 24.5 16.5909 24.5 12.7841Z" fill="#4285F4"/>
<path fill-rule="evenodd" clip-rule="evenodd" d="M12.4997 25C15.8747 25 18.7042 23.8807 20.7724 21.9716L16.7326 18.8352C15.6133 19.5852 14.1815 20.0284 12.4997 20.0284C9.24398 20.0284 6.4883 17.8295 5.50534 14.875H1.32921V18.1136C3.38603 22.1989 7.6133 25 12.4997 25Z" fill="#34A853"/>
<path fill-rule="evenodd" clip-rule="evenodd" d="M5.50568 14.8751C5.25568 14.1251 5.11364 13.324 5.11364 12.5001C5.11364 11.6762 5.25568 10.8751 5.50568 10.1251V6.88647H1.32955C0.482954 8.57397 0 10.4831 0 12.5001C0 14.5172 0.482954 16.4262 1.32955 18.1137L5.50568 14.8751Z" fill="#FBBC05"/>
<path fill-rule="evenodd" clip-rule="evenodd" d="M12.4997 4.97159C14.3349 4.97159 15.9826 5.60227 17.2781 6.84091L20.8633 3.25568C18.6985 1.23864 15.869 0 12.4997 0C7.6133 0 3.38603 2.80114 1.32921 6.88636L5.50534 10.125C6.4883 7.17045 9.24398 4.97159 12.4997 4.97159Z" fill="#EA4335"/>
</svg>
