<svg width="277" height="78" viewBox="0 0 277 78" fill="none" xmlns="http://www.w3.org/2000/svg">
<g clip-path="url(#clip0_221_1382)">
<g filter="url(#filter0_d_221_1382)">
<path d="M60.1732 51.9176L37.5804 39.1157L67.1225 22.0565L68.1295 23.7913L41.6283 39.0958L61.1602 50.1728L60.1732 51.9176Z" fill="url(#paint0_linear_221_1382)"/>
<path d="M44.1409 42.3461L43.1339 40.6013L52.7253 35.0677L65.936 38.1087L65.5073 40.0729L53.0543 37.1914L44.1409 42.3461Z" fill="url(#paint1_linear_221_1382)"/>
<path d="M47.6504 44.5496L46.8628 43.3532L53.0942 39.2952L59.1761 41.0699L58.7673 42.4459L53.3235 40.8606L47.6504 44.5496Z" fill="url(#paint2_linear_221_1382)"/>
<path d="M59.6048 34.4097L52.5857 32.1664L53.0244 30.8005L59.4353 32.8444L64.8792 29.7037L65.597 30.95L59.6048 34.4097Z" fill="url(#paint3_linear_221_1382)"/>
<path d="M68.6679 24.4493C69.7802 24.4493 70.6819 23.5476 70.6819 22.4353C70.6819 21.323 69.7802 20.4213 68.6679 20.4213C67.5556 20.4213 66.6539 21.323 66.6539 22.4353C66.6539 23.5476 67.5556 24.4493 68.6679 24.4493Z" fill="url(#paint4_linear_221_1382)"/>
<path d="M61.6986 53.6624C62.8109 53.6624 63.7126 52.7607 63.7126 51.6484C63.7126 50.5361 62.8109 49.6344 61.6986 49.6344C60.5863 49.6344 59.6846 50.5361 59.6846 51.6484C59.6846 52.7607 60.5863 53.6624 61.6986 53.6624Z" fill="url(#paint5_linear_221_1382)"/>
<path d="M59.4453 43.4827C60.2603 43.4827 60.9209 42.8221 60.9209 42.0071C60.9209 41.1921 60.2603 40.5315 59.4453 40.5315C58.6304 40.5315 57.9697 41.1921 57.9697 42.0071C57.9697 42.8221 58.6304 43.4827 59.4453 43.4827Z" fill="url(#paint6_linear_221_1382)"/>
<path d="M65.2381 31.8074C66.0531 31.8074 66.7137 31.1468 66.7137 30.3318C66.7137 29.5169 66.0531 28.8562 65.2381 28.8562C64.4231 28.8562 63.7625 29.5169 63.7625 30.3318C63.7625 31.1468 64.4231 31.8074 65.2381 31.8074Z" fill="url(#paint7_linear_221_1382)"/>
<path d="M65.5871 40.5913C66.5287 40.5913 67.292 39.828 67.292 38.8864C67.292 37.9448 66.5287 37.1815 65.5871 37.1815C64.6455 37.1815 63.8821 37.9448 63.8821 38.8864C63.8821 39.828 64.6455 40.5913 65.5871 40.5913Z" fill="url(#paint8_linear_221_1382)"/>
<path d="M36.7329 66.7634L36.5335 40.7907L66.0756 57.85L65.0686 59.5848L38.5674 44.2903L38.7469 66.7435L36.7329 66.7634Z" fill="url(#paint9_linear_221_1382)"/>
<path d="M37.0121 48.089L38.0191 46.3442L47.6105 51.8877L51.5787 64.8491L49.6644 65.4573L45.9255 53.2337L37.0121 48.089Z" fill="url(#paint10_linear_221_1382)"/>
<path d="M44.2306 60.8211L42.8946 55.2976L36.8526 52.2367L37.5006 50.9505L44.1309 54.3205L45.6265 60.4722L44.2306 60.8211Z" fill="url(#paint11_linear_221_1382)"/>
<path d="M57.6108 60.9707L51.6087 57.511L50.0533 50.3124L51.4491 50.0133L52.8849 56.5838L58.3287 59.7344L57.6108 60.9707Z" fill="url(#paint12_linear_221_1382)"/>
<path d="M66.5143 61.3894C67.6266 61.3894 68.5283 60.4877 68.5283 59.3754C68.5283 58.2631 67.6266 57.3614 66.5143 57.3614C65.402 57.3614 64.5003 58.2631 64.5003 59.3754C64.5003 60.4877 65.402 61.3894 66.5143 61.3894Z" fill="url(#paint13_linear_221_1382)"/>
<path d="M37.7299 69.9639C38.8422 69.9639 39.7439 69.0622 39.7439 67.9499C39.7439 66.8376 38.8422 65.9359 37.7299 65.9359C36.6176 65.9359 35.7159 66.8376 35.7159 67.9499C35.7159 69.0622 36.6176 69.9639 37.7299 69.9639Z" fill="url(#paint14_linear_221_1382)"/>
<path d="M44.9585 62.6556C45.7734 62.6556 46.4341 61.995 46.4341 61.18C46.4341 60.3651 45.7734 59.7044 44.9585 59.7044C44.1435 59.7044 43.4829 60.3651 43.4829 61.18C43.4829 61.995 44.1435 62.6556 44.9585 62.6556Z" fill="url(#paint15_linear_221_1382)"/>
<path d="M57.9697 61.8282C58.7847 61.8282 59.4454 61.1675 59.4454 60.3526C59.4454 59.5376 58.7847 58.877 57.9697 58.877C57.1548 58.877 56.4941 59.5376 56.4941 60.3526C56.4941 61.1675 57.1548 61.8282 57.9697 61.8282Z" fill="url(#paint16_linear_221_1382)"/>
<path d="M50.7313 66.6439C51.6729 66.6439 52.4362 65.8805 52.4362 64.9389C52.4362 63.9973 51.6729 63.234 50.7313 63.234C49.7897 63.234 49.0264 63.9973 49.0264 64.9389C49.0264 65.8805 49.7897 66.6439 50.7313 66.6439Z" fill="url(#paint17_linear_221_1382)"/>
<path d="M34.5494 74.8394H32.5454V44.2405L13.183 55.6166L12.166 53.8818L34.5494 40.7309V74.8394Z" fill="url(#paint18_linear_221_1382)"/>
<path d="M28.4774 44.7889H30.4815V55.8659L21.249 65.7864L19.7534 64.4304L28.4774 55.0882V44.7889Z" fill="url(#paint19_linear_221_1382)"/>
<path d="M22.0565 58.4482L21.0595 57.4113L25.1673 53.483L24.8084 46.7231L26.2441 46.6433L26.6329 54.0712L22.0565 58.4482Z" fill="url(#paint20_linear_221_1382)"/>
<path d="M29.0458 69.0766H27.61V62.1472L33.0638 57.192L34.0309 58.2588L29.0458 62.7853V69.0766Z" fill="url(#paint21_linear_221_1382)"/>
<path d="M33.4527 78C34.565 78 35.4667 77.0983 35.4667 75.986C35.4667 74.8737 34.565 73.972 33.4527 73.972C32.3404 73.972 31.4387 74.8737 31.4387 75.986C31.4387 77.0983 32.3404 78 33.4527 78Z" fill="url(#paint22_linear_221_1382)"/>
<path d="M11.6376 57.3614C12.7499 57.3614 13.6516 56.4597 13.6516 55.3474C13.6516 54.2351 12.7499 53.3334 11.6376 53.3334C10.5253 53.3334 9.62357 54.2351 9.62357 55.3474C9.62357 56.4597 10.5253 57.3614 11.6376 57.3614Z" fill="url(#paint23_linear_221_1382)"/>
<path d="M21.1094 59.6944C21.9243 59.6944 22.585 59.0338 22.585 58.2188C22.585 57.4039 21.9243 56.7432 21.1094 56.7432C20.2944 56.7432 19.6338 57.4039 19.6338 58.2188C19.6338 59.0338 20.2944 59.6944 21.1094 59.6944Z" fill="url(#paint24_linear_221_1382)"/>
<path d="M28.3279 70.5422C29.1428 70.5422 29.8035 69.8816 29.8035 69.0666C29.8035 68.2517 29.1428 67.591 28.3279 67.591C27.5129 67.591 26.8523 68.2517 26.8523 69.0666C26.8523 69.8816 27.5129 70.5422 28.3279 70.5422Z" fill="url(#paint25_linear_221_1382)"/>
<path d="M20.7405 66.8033C21.6821 66.8033 22.4454 66.04 22.4454 65.0984C22.4454 64.1568 21.6821 63.3934 20.7405 63.3934C19.7989 63.3934 19.0356 64.1568 19.0356 65.0984C19.0356 66.04 19.7989 66.8033 20.7405 66.8033Z" fill="url(#paint26_linear_221_1382)"/>
<path d="M4.08006 56.0354L3.07305 54.2906L29.5742 38.9961L10.0323 27.9191L11.0294 26.1643L33.6222 38.9762L4.08006 56.0354Z" fill="url(#paint27_linear_221_1382)"/>
<path d="M27.0617 35.7457L28.0687 37.4905L18.4772 43.0241L5.26654 39.9831L5.69526 38.019L18.1382 40.8904L27.0617 35.7457Z" fill="url(#paint28_linear_221_1382)"/>
<path d="M18.1083 38.7966L12.0264 37.0119L12.4252 35.636L17.879 37.2313L23.5521 33.5323L24.3398 34.7387L18.1083 38.7966Z" fill="url(#paint29_linear_221_1382)"/>
<path d="M6.32341 48.3881L5.59557 47.1418L11.5977 43.6821L18.6069 45.9254L18.1781 47.2913L11.7672 45.2374L6.32341 48.3881Z" fill="url(#paint30_linear_221_1382)"/>
<path d="M2.53465 57.6705C3.64696 57.6705 4.54866 56.7688 4.54866 55.6565C4.54866 54.5442 3.64696 53.6425 2.53465 53.6425C1.42235 53.6425 0.520645 54.5442 0.520645 55.6565C0.520645 56.7688 1.42235 57.6705 2.53465 57.6705Z" fill="url(#paint31_linear_221_1382)"/>
<path d="M9.50392 28.4574C10.6162 28.4574 11.5179 27.5557 11.5179 26.4434C11.5179 25.3311 10.6162 24.4294 9.50392 24.4294C8.39161 24.4294 7.48991 25.3311 7.48991 26.4434C7.48991 27.5557 8.39161 28.4574 9.50392 28.4574Z" fill="url(#paint32_linear_221_1382)"/>
<path d="M11.7572 37.5604C12.5721 37.5604 13.2328 36.8997 13.2328 36.0847C13.2328 35.2698 12.5721 34.6091 11.7572 34.6091C10.9422 34.6091 10.2816 35.2698 10.2816 36.0847C10.2816 36.8997 10.9422 37.5604 11.7572 37.5604Z" fill="url(#paint33_linear_221_1382)"/>
<path d="M5.96443 49.2356C6.77939 49.2356 7.44004 48.5749 7.44004 47.76C7.44004 46.945 6.77939 46.2844 5.96443 46.2844C5.14948 46.2844 4.48882 46.945 4.48882 47.76C4.48882 48.5749 5.14948 49.2356 5.96443 49.2356Z" fill="url(#paint34_linear_221_1382)"/>
<path d="M5.60553 40.9004C6.54714 40.9004 7.31046 40.1371 7.31046 39.1955C7.31046 38.2539 6.54714 37.4905 5.60553 37.4905C4.66393 37.4905 3.9006 38.2539 3.9006 39.1955C3.9006 40.1371 4.66393 40.9004 5.60553 40.9004Z" fill="url(#paint35_linear_221_1382)"/>
<path d="M34.669 37.2912L5.12694 20.2419L6.13394 18.4971L32.6251 33.8016L32.4556 11.3384L34.4696 11.3284L34.669 37.2912Z" fill="url(#paint36_linear_221_1382)"/>
<path d="M34.1904 30.0028L33.1834 31.7377L23.592 26.2042L19.6238 13.2427L21.5381 12.6345L25.267 24.8482L34.1904 30.0028Z" fill="url(#paint37_linear_221_1382)"/>
<path d="M33.6919 27.1413L27.0716 23.7714L25.5661 17.6097L26.962 17.2707L28.308 22.7943L34.35 25.8552L33.6919 27.1413Z" fill="url(#paint38_linear_221_1382)"/>
<path d="M19.7435 28.0785L18.3177 21.4981L12.8739 18.3574L13.5918 17.1111L19.5839 20.5709L21.1493 27.7694L19.7435 28.0785Z" fill="url(#paint39_linear_221_1382)"/>
<path d="M4.6783 20.7303C5.79061 20.7303 6.69231 19.8286 6.69231 18.7163C6.69231 17.604 5.79061 16.7023 4.6783 16.7023C3.56599 16.7023 2.66429 17.604 2.66429 18.7163C2.66429 19.8286 3.56599 20.7303 4.6783 20.7303Z" fill="url(#paint40_linear_221_1382)"/>
<path d="M33.4627 12.1559C34.575 12.1559 35.4767 11.2542 35.4767 10.1419C35.4767 9.02963 34.575 8.12793 33.4627 8.12793C32.3504 8.12793 31.4487 9.02963 31.4487 10.1419C31.4487 11.2542 32.3504 12.1559 33.4627 12.1559Z" fill="url(#paint41_linear_221_1382)"/>
<path d="M26.2441 18.3874C27.0591 18.3874 27.7197 17.7267 27.7197 16.9118C27.7197 16.0968 27.0591 15.4362 26.2441 15.4362C25.4292 15.4362 24.7685 16.0968 24.7685 16.9118C24.7685 17.7267 25.4292 18.3874 26.2441 18.3874Z" fill="url(#paint42_linear_221_1382)"/>
<path d="M13.2328 19.2149C14.0478 19.2149 14.7085 18.5542 14.7085 17.7393C14.7085 16.9243 14.0478 16.2637 13.2328 16.2637C12.4179 16.2637 11.7572 16.9243 11.7572 17.7393C11.7572 18.5542 12.4179 19.2149 13.2328 19.2149Z" fill="url(#paint43_linear_221_1382)"/>
<path d="M20.4713 14.8579C21.4129 14.8579 22.1762 14.0945 22.1762 13.1529C22.1762 12.2113 21.4129 11.448 20.4713 11.448C19.5297 11.448 18.7663 12.2113 18.7663 13.1529C18.7663 14.0945 19.5297 14.8579 20.4713 14.8579Z" fill="url(#paint44_linear_221_1382)"/>
<path d="M36.6432 37.3609V3.25238H38.6572V33.8513L58.0196 22.4752L59.0365 24.2001L36.6432 37.3609Z" fill="url(#paint45_linear_221_1382)"/>
<path d="M42.7251 33.303H40.7111V22.226L49.9536 12.3055L51.4392 13.6614L42.7251 23.0037V33.303Z" fill="url(#paint46_linear_221_1382)"/>
<path d="M44.9584 31.4385L44.5596 24.0206L49.146 19.6436L50.133 20.6805L46.0352 24.5989L46.3942 31.3687L44.9584 31.4385Z" fill="url(#paint47_linear_221_1382)"/>
<path d="M38.1387 20.8899L37.1716 19.8331L42.1468 15.3065V9.01526H43.5925V15.9446L38.1387 20.8899Z" fill="url(#paint48_linear_221_1382)"/>
<path d="M37.7499 4.11981C38.8622 4.11981 39.7639 3.21811 39.7639 2.10581C39.7639 0.993499 38.8622 0.0917969 37.7499 0.0917969C36.6376 0.0917969 35.7359 0.993499 35.7359 2.10581C35.7359 3.21811 36.6376 4.11981 37.7499 4.11981Z" fill="url(#paint49_linear_221_1382)"/>
<path d="M59.565 24.7584C60.6773 24.7584 61.579 23.8567 61.579 22.7444C61.579 21.6321 60.6773 20.7304 59.565 20.7304C58.4527 20.7304 57.551 21.6321 57.551 22.7444C57.551 23.8567 58.4527 24.7584 59.565 24.7584Z" fill="url(#paint50_linear_221_1382)"/>
<path d="M50.0832 21.3486C50.8981 21.3486 51.5588 20.6879 51.5588 19.8729C51.5588 19.058 50.8981 18.3973 50.0832 18.3973C49.2682 18.3973 48.6076 19.058 48.6076 19.8729C48.6076 20.6879 49.2682 21.3486 50.0832 21.3486Z" fill="url(#paint51_linear_221_1382)"/>
<path d="M42.8647 10.4908C43.6796 10.4908 44.3403 9.83018 44.3403 9.01522C44.3403 8.20026 43.6796 7.53961 42.8647 7.53961C42.0497 7.53961 41.3891 8.20026 41.3891 9.01522C41.3891 9.83018 42.0497 10.4908 42.8647 10.4908Z" fill="url(#paint52_linear_221_1382)"/>
<path d="M50.4621 14.6983C51.4037 14.6983 52.167 13.935 52.167 12.9934C52.167 12.0518 51.4037 11.2885 50.4621 11.2885C49.5205 11.2885 48.7571 12.0518 48.7571 12.9934C48.7571 13.935 49.5205 14.6983 50.4621 14.6983Z" fill="url(#paint53_linear_221_1382)"/>
<path d="M79.6652 50.2027C78.4528 50.2234 77.2419 50.1063 76.0559 49.8537C75.2517 49.614 74.5028 49.2176 73.8525 48.6872C73.2503 48.1137 72.81 47.3915 72.5763 46.5934C72.3111 45.5717 72.1903 44.5179 72.2173 43.4627V37.2911C72.1882 36.7875 72.2183 36.2822 72.3071 35.7856H76.7239C76.7239 35.9052 76.7239 36.0149 76.6043 36.0149C76.6043 36.4835 76.4946 36.9421 76.4946 37.5304V43.3431C76.4946 43.9214 76.6143 44.3401 76.6143 44.8486C76.7332 45.201 76.9309 45.5215 77.1925 45.7858C77.4536 46.0612 77.8106 46.2255 78.1896 46.2445C78.7153 46.4093 79.2638 46.49 79.8147 46.4837H93.1451V50.2127L79.6652 50.2027ZM72.5663 34.3897V34.2701C72.7511 33.4517 73.2037 32.7184 73.8525 32.1863C74.4406 31.5646 75.2132 31.1486 76.0559 30.9998C77.2418 30.7467 78.4527 30.6296 79.6652 30.6509H93.1451V34.3897H72.5663ZM111.191 50.1927C112.401 50.2256 113.61 50.1084 114.791 49.8438C115.638 49.5782 116.441 49.1885 117.174 48.6872C117.733 48.1003 118.131 47.3791 118.33 46.5934C118.591 45.5676 118.708 44.5107 118.679 43.4528V37.2911C118.695 36.2831 118.577 35.2774 118.33 34.3C118.187 33.4932 117.78 32.7568 117.174 32.2062C116.504 31.5997 115.685 31.1832 114.801 30.9998C113.619 30.7406 112.411 30.6235 111.201 30.6509H103.873C102.664 30.6185 101.455 30.7357 100.274 30.9998C99.4092 31.1684 98.6064 31.5681 97.9508 32.1564C97.3373 32.7031 96.9263 33.4408 96.7842 34.2501L96.6746 34.3698H111.082C111.67 34.3698 112.248 34.4795 112.597 34.4795C112.974 34.5871 113.318 34.7896 113.594 35.0677C113.854 35.328 114.054 35.6407 114.182 35.985C114.287 36.4796 114.327 36.9856 114.302 37.4905V43.3032C114.327 43.8114 114.287 44.3207 114.182 44.8187C114.086 45.1781 113.884 45.5008 113.604 45.7459C113.329 46.0259 112.985 46.2287 112.607 46.3342C112.258 46.3342 111.68 46.4439 111.092 46.4439H104.003C103.305 46.4439 102.846 46.3342 102.378 46.3342C101.981 46.2393 101.618 46.0356 101.331 45.7459C101.085 45.4909 100.922 45.1678 100.862 44.8187C100.766 44.3196 100.729 43.8109 100.752 43.3032V37.5304C100.73 37.0227 100.767 36.5141 100.862 36.0149V35.7856H96.4353V43.4528C96.4106 44.5106 96.5279 45.5669 96.7842 46.5934C96.9824 47.3817 97.3848 48.1039 97.9508 48.6872C98.6635 49.1883 99.4463 49.5814 100.274 49.8537C101.456 50.1088 102.664 50.2226 103.873 50.1927H111.191ZM136.775 50.1927C137.988 50.2199 139.2 50.1028 140.385 49.8438C141.214 49.5755 141.997 49.1821 142.708 48.6772C143.271 48.0933 143.67 47.371 143.864 46.5835C144.129 45.5618 144.25 44.508 144.223 43.4528V37.2911C144.242 36.2823 144.121 35.2758 143.864 34.3C143.726 33.4914 143.319 32.7534 142.708 32.2062C142.056 31.6019 141.254 31.1851 140.385 30.9998C139.203 30.7401 137.995 30.6229 136.785 30.6509H129.457C128.248 30.6235 127.039 30.7406 125.858 30.9998C124.994 31.1764 124.192 31.5789 123.535 32.1663C122.928 32.7169 122.521 33.4534 122.378 34.2601L122.258 34.3698H136.676C137.254 34.3698 137.832 34.4894 138.181 34.4894C138.575 34.5853 138.937 34.785 139.228 35.0677C139.486 35.3345 139.684 35.6543 139.806 36.0049C139.91 36.4996 139.951 37.0056 139.926 37.5104V43.3232C139.95 43.8313 139.91 44.3405 139.806 44.8386C139.713 45.1998 139.511 45.5236 139.228 45.7659C138.94 46.0523 138.577 46.2526 138.181 46.3442C137.832 46.3442 137.254 46.4638 136.676 46.4638H129.577C128.879 46.4638 128.42 46.3442 127.952 46.3442C127.575 46.2398 127.232 46.0407 126.954 45.7659C126.71 45.511 126.55 45.1874 126.496 44.8386C126.392 44.3406 126.351 43.8314 126.376 43.3232V37.5204C126.333 37.0078 126.356 36.4916 126.446 35.985V35.7457H122.019V43.4229C121.993 44.4813 122.114 45.5383 122.378 46.5635C122.577 47.3492 122.976 48.0703 123.535 48.6573C124.252 49.1542 125.038 49.5438 125.868 49.8138C127.049 50.0736 128.258 50.1907 129.467 50.1628L136.775 50.1927ZM156.437 50.1927C155.228 50.2076 154.021 50.0906 152.837 49.8438C152.041 49.5791 151.293 49.1849 150.624 48.6772C150.025 48.1008 149.586 47.3796 149.348 46.5835V46.4738H168.421V50.1927H156.437ZM149.119 45.0779C149.119 44.4997 148.999 44.0809 148.999 43.4528V30.6608H153.296V43.3331C153.307 43.8076 153.388 44.2779 153.535 44.729C153.529 44.7916 153.535 44.8548 153.554 44.9149C153.573 44.9749 153.604 45.0304 153.645 45.0779H149.119ZM184.832 36.1844L179.259 47.9494L177.265 43.0739L182.25 32.0268C182.43 31.5211 182.752 31.078 183.177 30.7506C183.65 30.4067 184.229 30.2407 184.812 30.282C185.391 30.2131 185.976 30.3461 186.469 30.6585C186.961 30.971 187.33 31.4437 187.514 31.9969L191.951 42.1068L195.072 49.9435C194.952 49.9435 194.952 50.0631 194.843 50.1827C194.368 50.5231 193.789 50.6855 193.207 50.6414C192.627 50.7039 192.044 50.5396 191.582 50.1827C191.133 49.8135 190.789 49.3319 190.585 48.7869L184.832 36.1844ZM193.806 43.034L199.04 30.7107H203.806C203.443 31.4249 203.133 32.1647 202.879 32.9241C202.41 33.8513 201.951 34.9182 201.363 36.0647C200.775 37.2113 200.366 38.5075 199.738 39.7837C199.269 41.0149 198.726 42.2168 198.113 43.383C197.713 44.4967 197.247 45.5854 196.717 46.6433C196.529 47.2417 196.295 47.825 196.019 48.3881L193.806 43.034ZM178.352 49.5546C178.232 49.7839 178.003 49.9036 177.773 50.1329C177.3 50.4748 176.72 50.6374 176.138 50.5915C175.522 50.6345 174.909 50.4733 174.393 50.1329C173.996 49.7326 173.681 49.2584 173.466 48.737L165.909 30.7206H170.794L175.101 41.4088L176.487 44.7788L178.352 49.5546ZM214.723 50.1827C213.514 50.2041 212.307 50.087 211.124 49.8338C210.328 49.5647 209.578 49.1746 208.901 48.6772C208.308 48.0964 207.869 47.3767 207.624 46.5835C207.369 45.5568 207.251 44.5006 207.276 43.4428V37.2811C207.256 36.773 207.296 36.2644 207.395 35.7656H211.812L211.692 35.8853C211.692 36.2342 211.573 36.8125 211.573 37.2811V38.677H228.203V42.047H211.563V43.4428C211.563 44.0211 211.682 44.6093 211.682 44.9483C211.765 45.2926 211.925 45.6133 212.151 45.8855C212.452 46.1308 212.814 46.2893 213.198 46.3442C213.547 46.3442 214.125 46.4638 214.703 46.4638H228.313V50.1827H214.723ZM207.634 34.3698V34.2601C207.818 33.4409 208.267 32.705 208.911 32.1663C209.521 31.5831 210.28 31.1795 211.104 30.9998C212.287 30.7466 213.494 30.6295 214.703 30.6509H228.193V34.3698H207.615H207.634ZM240.596 50.1827C239.384 50.1977 238.174 50.0807 236.987 49.8338C236.194 49.5671 235.45 49.1731 234.784 48.6673C234.185 48.0909 233.746 47.3696 233.507 46.5735V46.4638H252.571V50.1827H240.596ZM233.268 45.068C233.268 44.4897 233.159 44.0709 233.159 43.4428V30.6509H237.456V43.3232C237.469 43.7967 237.546 44.2662 237.685 44.719C237.678 44.7824 237.685 44.8466 237.705 44.907C237.726 44.9674 237.76 45.0224 237.805 45.068H233.268ZM264.635 50.1827C263.423 50.1977 262.212 50.0807 261.026 49.8338C260.233 49.5671 259.488 49.1731 258.822 48.6673C258.221 48.0914 257.778 47.3703 257.536 46.5735V46.4638H276.609V50.1927L264.635 50.1827ZM257.307 45.068C257.307 44.4797 257.187 44.0709 257.187 43.4328V30.6509H261.494V43.3232C261.503 43.797 261.58 44.2672 261.724 44.719C261.716 44.7824 261.723 44.8466 261.744 44.907C261.765 44.9674 261.799 45.0224 261.843 45.068H257.307Z" fill="url(#paint54_linear_221_1382)"/>
</g>
</g>
<defs>
<filter id="filter0_d_221_1382" x="-6.47935" y="-2.9082" width="290.089" height="91.9082" filterUnits="userSpaceOnUse" color-interpolation-filters="sRGB">
<feFlood flood-opacity="0" result="BackgroundImageFix"/>
<feColorMatrix in="SourceAlpha" type="matrix" values="0 0 0 0 0 0 0 0 0 0 0 0 0 0 0 0 0 0 127 0" result="hardAlpha"/>
<feOffset dy="4"/>
<feGaussianBlur stdDeviation="3.5"/>
<feComposite in2="hardAlpha" operator="out"/>
<feColorMatrix type="matrix" values="0 0 0 0 0 0 0 0 0 0 0 0 0 0 0 0 0 0 0.38 0"/>
<feBlend mode="normal" in2="BackgroundImageFix" result="effect1_dropShadow_221_1382"/>
<feBlend mode="normal" in="SourceGraphic" in2="effect1_dropShadow_221_1382" result="shape"/>
</filter>
<linearGradient id="paint0_linear_221_1382" x1="-22.461" y1="91.5996" x2="83.3442" y2="23.2529" gradientUnits="userSpaceOnUse">
<stop offset="0.52" stop-color="#0DD8FF"/>
<stop offset="0.58" stop-color="#0FABFF"/>
<stop offset="0.7" stop-color="#1457FF"/>
<stop offset="0.75" stop-color="#1636FF"/>
<stop offset="1" stop-color="#0E69C7"/>
</linearGradient>
<linearGradient id="paint1_linear_221_1382" x1="-23.2187" y1="90.433" x2="82.5865" y2="22.0764" gradientUnits="userSpaceOnUse">
<stop offset="0.52" stop-color="#0DD8FF"/>
<stop offset="0.58" stop-color="#0FABFF"/>
<stop offset="0.7" stop-color="#1457FF"/>
<stop offset="0.75" stop-color="#1636FF"/>
<stop offset="1" stop-color="#0E69C7"/>
</linearGradient>
<linearGradient id="paint2_linear_221_1382" x1="-22.5009" y1="91.5398" x2="83.3043" y2="23.1931" gradientUnits="userSpaceOnUse">
<stop offset="0.52" stop-color="#0DD8FF"/>
<stop offset="0.58" stop-color="#0FABFF"/>
<stop offset="0.7" stop-color="#1457FF"/>
<stop offset="0.75" stop-color="#1636FF"/>
<stop offset="1" stop-color="#0E69C7"/>
</linearGradient>
<linearGradient id="paint3_linear_221_1382" x1="-26.0603" y1="86.0261" x2="79.7449" y2="17.6695" gradientUnits="userSpaceOnUse">
<stop offset="0.52" stop-color="#0DD8FF"/>
<stop offset="0.58" stop-color="#0FABFF"/>
<stop offset="0.7" stop-color="#1457FF"/>
<stop offset="0.75" stop-color="#1636FF"/>
<stop offset="1" stop-color="#0E69C7"/>
</linearGradient>
<linearGradient id="paint4_linear_221_1382" x1="-27.157" y1="84.3412" x2="78.6482" y2="15.9845" gradientUnits="userSpaceOnUse">
<stop offset="0.52" stop-color="#0DD8FF"/>
<stop offset="0.58" stop-color="#0FABFF"/>
<stop offset="0.7" stop-color="#1457FF"/>
<stop offset="0.75" stop-color="#1636FF"/>
<stop offset="1" stop-color="#0E69C7"/>
</linearGradient>
<linearGradient id="paint5_linear_221_1382" x1="-15.8906" y1="101.769" x2="89.9147" y2="33.4226" gradientUnits="userSpaceOnUse">
<stop offset="0.52" stop-color="#0DD8FF"/>
<stop offset="0.58" stop-color="#0FABFF"/>
<stop offset="0.7" stop-color="#1457FF"/>
<stop offset="0.75" stop-color="#1636FF"/>
<stop offset="1" stop-color="#0E69C7"/>
</linearGradient>
<linearGradient id="paint6_linear_221_1382" x1="-20.9555" y1="93.9426" x2="84.8597" y2="25.5858" gradientUnits="userSpaceOnUse">
<stop offset="0.52" stop-color="#0DD8FF"/>
<stop offset="0.58" stop-color="#0FABFF"/>
<stop offset="0.7" stop-color="#1457FF"/>
<stop offset="0.75" stop-color="#1636FF"/>
<stop offset="1" stop-color="#0E69C7"/>
</linearGradient>
<linearGradient id="paint7_linear_221_1382" x1="-24.5647" y1="88.3392" x2="81.2405" y2="19.9926" gradientUnits="userSpaceOnUse">
<stop offset="0.52" stop-color="#0DD8FF"/>
<stop offset="0.58" stop-color="#0FABFF"/>
<stop offset="0.7" stop-color="#1457FF"/>
<stop offset="0.75" stop-color="#1636FF"/>
<stop offset="1" stop-color="#0E69C7"/>
</linearGradient>
<linearGradient id="paint8_linear_221_1382" x1="-20.5567" y1="94.5408" x2="85.2485" y2="26.194" gradientUnits="userSpaceOnUse">
<stop offset="0.52" stop-color="#0DD8FF"/>
<stop offset="0.58" stop-color="#0FABFF"/>
<stop offset="0.7" stop-color="#1457FF"/>
<stop offset="0.75" stop-color="#1636FF"/>
<stop offset="1" stop-color="#0E69C7"/>
</linearGradient>
<linearGradient id="paint9_linear_221_1382" x1="-19.769" y1="95.7771" x2="86.0462" y2="27.4205" gradientUnits="userSpaceOnUse">
<stop offset="0.52" stop-color="#0DD8FF"/>
<stop offset="0.58" stop-color="#0FABFF"/>
<stop offset="0.7" stop-color="#1457FF"/>
<stop offset="0.75" stop-color="#1636FF"/>
<stop offset="1" stop-color="#0E69C7"/>
</linearGradient>
<linearGradient id="paint10_linear_221_1382" x1="-19.0711" y1="96.8539" x2="86.7341" y2="28.5072" gradientUnits="userSpaceOnUse">
<stop offset="0.52" stop-color="#0DD8FF"/>
<stop offset="0.58" stop-color="#0FABFF"/>
<stop offset="0.7" stop-color="#1457FF"/>
<stop offset="0.75" stop-color="#1636FF"/>
<stop offset="1" stop-color="#0E69C7"/>
</linearGradient>
<linearGradient id="paint11_linear_221_1382" x1="-19.9684" y1="95.4681" x2="85.8368" y2="27.1114" gradientUnits="userSpaceOnUse">
<stop offset="0.52" stop-color="#0DD8FF"/>
<stop offset="0.58" stop-color="#0FABFF"/>
<stop offset="0.7" stop-color="#1457FF"/>
<stop offset="0.75" stop-color="#1636FF"/>
<stop offset="1" stop-color="#0E69C7"/>
</linearGradient>
<linearGradient id="paint12_linear_221_1382" x1="-16.3891" y1="101.012" x2="89.4162" y2="32.655" gradientUnits="userSpaceOnUse">
<stop offset="0.52" stop-color="#0DD8FF"/>
<stop offset="0.58" stop-color="#0FABFF"/>
<stop offset="0.7" stop-color="#1457FF"/>
<stop offset="0.75" stop-color="#1636FF"/>
<stop offset="1" stop-color="#0E69C7"/>
</linearGradient>
<linearGradient id="paint13_linear_221_1382" x1="-10.9453" y1="109.427" x2="94.86" y2="41.0699" gradientUnits="userSpaceOnUse">
<stop offset="0.52" stop-color="#0DD8FF"/>
<stop offset="0.58" stop-color="#0FABFF"/>
<stop offset="0.7" stop-color="#1457FF"/>
<stop offset="0.75" stop-color="#1636FF"/>
<stop offset="1" stop-color="#0E69C7"/>
</linearGradient>
<linearGradient id="paint14_linear_221_1382" x1="-15.5217" y1="102.348" x2="90.2836" y2="34.0009" gradientUnits="userSpaceOnUse">
<stop offset="0.52" stop-color="#0DD8FF"/>
<stop offset="0.58" stop-color="#0FABFF"/>
<stop offset="0.7" stop-color="#1457FF"/>
<stop offset="0.75" stop-color="#1636FF"/>
<stop offset="1" stop-color="#0E69C7"/>
</linearGradient>
<linearGradient id="paint15_linear_221_1382" x1="-16.4787" y1="100.862" x2="89.3265" y2="32.5153" gradientUnits="userSpaceOnUse">
<stop offset="0.52" stop-color="#0DD8FF"/>
<stop offset="0.58" stop-color="#0FABFF"/>
<stop offset="0.7" stop-color="#1457FF"/>
<stop offset="0.75" stop-color="#1636FF"/>
<stop offset="1" stop-color="#0E69C7"/>
</linearGradient>
<linearGradient id="paint16_linear_221_1382" x1="-13.019" y1="106.216" x2="92.7862" y2="37.8595" gradientUnits="userSpaceOnUse">
<stop offset="0.52" stop-color="#0DD8FF"/>
<stop offset="0.58" stop-color="#0FABFF"/>
<stop offset="0.7" stop-color="#1457FF"/>
<stop offset="0.75" stop-color="#1636FF"/>
<stop offset="1" stop-color="#0E69C7"/>
</linearGradient>
<linearGradient id="paint17_linear_221_1382" x1="-13.0689" y1="106.146" x2="92.7463" y2="37.7997" gradientUnits="userSpaceOnUse">
<stop offset="0.52" stop-color="#0DD8FF"/>
<stop offset="0.58" stop-color="#0FABFF"/>
<stop offset="0.7" stop-color="#1457FF"/>
<stop offset="0.75" stop-color="#1636FF"/>
<stop offset="1" stop-color="#0E69C7"/>
</linearGradient>
<linearGradient id="paint18_linear_221_1382" x1="-21.3842" y1="93.2646" x2="84.421" y2="24.9179" gradientUnits="userSpaceOnUse">
<stop offset="0.52" stop-color="#0DD8FF"/>
<stop offset="0.58" stop-color="#0FABFF"/>
<stop offset="0.7" stop-color="#1457FF"/>
<stop offset="0.75" stop-color="#1636FF"/>
<stop offset="1" stop-color="#0E69C7"/>
</linearGradient>
<linearGradient id="paint19_linear_221_1382" x1="-25.0832" y1="87.5517" x2="80.722" y2="19.195" gradientUnits="userSpaceOnUse">
<stop offset="0.52" stop-color="#0DD8FF"/>
<stop offset="0.58" stop-color="#0FABFF"/>
<stop offset="0.7" stop-color="#1457FF"/>
<stop offset="0.75" stop-color="#1636FF"/>
<stop offset="1" stop-color="#0E69C7"/>
</linearGradient>
<linearGradient id="paint20_linear_221_1382" x1="-26.7283" y1="84.9892" x2="79.0769" y2="16.6426" gradientUnits="userSpaceOnUse">
<stop offset="0.52" stop-color="#0DD8FF"/>
<stop offset="0.58" stop-color="#0FABFF"/>
<stop offset="0.7" stop-color="#1457FF"/>
<stop offset="0.75" stop-color="#1636FF"/>
<stop offset="1" stop-color="#0E69C7"/>
</linearGradient>
<linearGradient id="paint21_linear_221_1382" x1="-19.6793" y1="95.9068" x2="86.126" y2="27.5601" gradientUnits="userSpaceOnUse">
<stop offset="0.52" stop-color="#0DD8FF"/>
<stop offset="0.58" stop-color="#0FABFF"/>
<stop offset="0.7" stop-color="#1457FF"/>
<stop offset="0.75" stop-color="#1636FF"/>
<stop offset="1" stop-color="#0E69C7"/>
</linearGradient>
<linearGradient id="paint22_linear_221_1382" x1="-13.1188" y1="106.067" x2="92.6865" y2="37.7199" gradientUnits="userSpaceOnUse">
<stop offset="0.52" stop-color="#0DD8FF"/>
<stop offset="0.58" stop-color="#0FABFF"/>
<stop offset="0.7" stop-color="#1457FF"/>
<stop offset="0.75" stop-color="#1636FF"/>
<stop offset="1" stop-color="#0E69C7"/>
</linearGradient>
<linearGradient id="paint23_linear_221_1382" x1="-28.9517" y1="81.5594" x2="76.8535" y2="13.2128" gradientUnits="userSpaceOnUse">
<stop offset="0.52" stop-color="#0DD8FF"/>
<stop offset="0.58" stop-color="#0FABFF"/>
<stop offset="0.7" stop-color="#1457FF"/>
<stop offset="0.75" stop-color="#1636FF"/>
<stop offset="1" stop-color="#0E69C7"/>
</linearGradient>
<linearGradient id="paint24_linear_221_1382" x1="-24.8439" y1="87.9105" x2="80.9613" y2="19.5539" gradientUnits="userSpaceOnUse">
<stop offset="0.52" stop-color="#0DD8FF"/>
<stop offset="0.58" stop-color="#0FABFF"/>
<stop offset="0.7" stop-color="#1457FF"/>
<stop offset="0.75" stop-color="#1636FF"/>
<stop offset="1" stop-color="#0E69C7"/>
</linearGradient>
<linearGradient id="paint25_linear_221_1382" x1="-17.775" y1="98.8581" x2="88.0304" y2="30.5015" gradientUnits="userSpaceOnUse">
<stop offset="0.52" stop-color="#0DD8FF"/>
<stop offset="0.58" stop-color="#0FABFF"/>
<stop offset="0.7" stop-color="#1457FF"/>
<stop offset="0.75" stop-color="#1636FF"/>
<stop offset="1" stop-color="#0E69C7"/>
</linearGradient>
<linearGradient id="paint26_linear_221_1382" x1="-21.8229" y1="92.5866" x2="83.9824" y2="24.2399" gradientUnits="userSpaceOnUse">
<stop offset="0.52" stop-color="#0DD8FF"/>
<stop offset="0.58" stop-color="#0FABFF"/>
<stop offset="0.7" stop-color="#1457FF"/>
<stop offset="0.75" stop-color="#1636FF"/>
<stop offset="1" stop-color="#0E69C7"/>
</linearGradient>
<linearGradient id="paint27_linear_221_1382" x1="-36.1802" y1="70.3628" x2="69.6251" y2="2.01615" gradientUnits="userSpaceOnUse">
<stop offset="0.52" stop-color="#0DD8FF"/>
<stop offset="0.58" stop-color="#0FABFF"/>
<stop offset="0.7" stop-color="#1457FF"/>
<stop offset="0.75" stop-color="#1636FF"/>
<stop offset="1" stop-color="#0E69C7"/>
</linearGradient>
<linearGradient id="paint28_linear_221_1382" x1="-35.4224" y1="71.5393" x2="70.3828" y2="3.18264" gradientUnits="userSpaceOnUse">
<stop offset="0.52" stop-color="#0DD8FF"/>
<stop offset="0.58" stop-color="#0FABFF"/>
<stop offset="0.7" stop-color="#1457FF"/>
<stop offset="0.75" stop-color="#1636FF"/>
<stop offset="1" stop-color="#0E69C7"/>
</linearGradient>
<linearGradient id="paint29_linear_221_1382" x1="-36.1403" y1="70.4225" x2="69.6649" y2="2.07586" gradientUnits="userSpaceOnUse">
<stop offset="0.52" stop-color="#0DD8FF"/>
<stop offset="0.58" stop-color="#0FABFF"/>
<stop offset="0.7" stop-color="#1457FF"/>
<stop offset="0.75" stop-color="#1636FF"/>
<stop offset="1" stop-color="#0E69C7"/>
</linearGradient>
<linearGradient id="paint30_linear_221_1382" x1="-32.5808" y1="75.9461" x2="73.2243" y2="7.58942" gradientUnits="userSpaceOnUse">
<stop offset="0.52" stop-color="#0DD8FF"/>
<stop offset="0.58" stop-color="#0FABFF"/>
<stop offset="0.7" stop-color="#1457FF"/>
<stop offset="0.75" stop-color="#1636FF"/>
<stop offset="1" stop-color="#0E69C7"/>
</linearGradient>
<linearGradient id="paint31_linear_221_1382" x1="-31.4841" y1="77.6312" x2="74.3211" y2="9.27452" gradientUnits="userSpaceOnUse">
<stop offset="0.52" stop-color="#0DD8FF"/>
<stop offset="0.58" stop-color="#0FABFF"/>
<stop offset="0.7" stop-color="#1457FF"/>
<stop offset="0.75" stop-color="#1636FF"/>
<stop offset="1" stop-color="#0E69C7"/>
</linearGradient>
<linearGradient id="paint32_linear_221_1382" x1="-42.7506" y1="60.193" x2="63.0546" y2="-8.15367" gradientUnits="userSpaceOnUse">
<stop offset="0.52" stop-color="#0DD8FF"/>
<stop offset="0.58" stop-color="#0FABFF"/>
<stop offset="0.7" stop-color="#1457FF"/>
<stop offset="0.75" stop-color="#1636FF"/>
<stop offset="1" stop-color="#0E69C7"/>
</linearGradient>
<linearGradient id="paint33_linear_221_1382" x1="-37.6957" y1="68.0297" x2="68.1196" y2="-0.326871" gradientUnits="userSpaceOnUse">
<stop offset="0.52" stop-color="#0DD8FF"/>
<stop offset="0.58" stop-color="#0FABFF"/>
<stop offset="0.7" stop-color="#1457FF"/>
<stop offset="0.75" stop-color="#1636FF"/>
<stop offset="1" stop-color="#0E69C7"/>
</linearGradient>
<linearGradient id="paint34_linear_221_1382" x1="-34.0764" y1="73.623" x2="71.7288" y2="5.27635" gradientUnits="userSpaceOnUse">
<stop offset="0.52" stop-color="#0DD8FF"/>
<stop offset="0.58" stop-color="#0FABFF"/>
<stop offset="0.7" stop-color="#1457FF"/>
<stop offset="0.75" stop-color="#1636FF"/>
<stop offset="1" stop-color="#0E69C7"/>
</linearGradient>
<linearGradient id="paint35_linear_221_1382" x1="-38.0845" y1="67.4215" x2="67.7208" y2="-0.925133" gradientUnits="userSpaceOnUse">
<stop offset="0.52" stop-color="#0DD8FF"/>
<stop offset="0.58" stop-color="#0FABFF"/>
<stop offset="0.7" stop-color="#1457FF"/>
<stop offset="0.75" stop-color="#1636FF"/>
<stop offset="1" stop-color="#0E69C7"/>
</linearGradient>
<linearGradient id="paint36_linear_221_1382" x1="-38.8821" y1="66.1952" x2="66.9331" y2="-2.16143" gradientUnits="userSpaceOnUse">
<stop offset="0.52" stop-color="#0DD8FF"/>
<stop offset="0.58" stop-color="#0FABFF"/>
<stop offset="0.7" stop-color="#1457FF"/>
<stop offset="0.75" stop-color="#1636FF"/>
<stop offset="1" stop-color="#0E69C7"/>
</linearGradient>
<linearGradient id="paint37_linear_221_1382" x1="-39.5701" y1="65.1084" x2="66.2351" y2="-3.23827" gradientUnits="userSpaceOnUse">
<stop offset="0.52" stop-color="#0DD8FF"/>
<stop offset="0.58" stop-color="#0FABFF"/>
<stop offset="0.7" stop-color="#1457FF"/>
<stop offset="0.75" stop-color="#1636FF"/>
<stop offset="1" stop-color="#0E69C7"/>
</linearGradient>
<linearGradient id="paint38_linear_221_1382" x1="-38.6728" y1="66.5042" x2="67.1325" y2="-1.8524" gradientUnits="userSpaceOnUse">
<stop offset="0.52" stop-color="#0DD8FF"/>
<stop offset="0.58" stop-color="#0FABFF"/>
<stop offset="0.7" stop-color="#1457FF"/>
<stop offset="0.75" stop-color="#1636FF"/>
<stop offset="1" stop-color="#0E69C7"/>
</linearGradient>
<linearGradient id="paint39_linear_221_1382" x1="-42.2521" y1="60.9607" x2="63.5531" y2="-7.39595" gradientUnits="userSpaceOnUse">
<stop offset="0.52" stop-color="#0DD8FF"/>
<stop offset="0.58" stop-color="#0FABFF"/>
<stop offset="0.7" stop-color="#1457FF"/>
<stop offset="0.75" stop-color="#1636FF"/>
<stop offset="1" stop-color="#0E69C7"/>
</linearGradient>
<linearGradient id="paint40_linear_221_1382" x1="-47.6959" y1="52.5457" x2="58.1094" y2="-15.8109" gradientUnits="userSpaceOnUse">
<stop offset="0.52" stop-color="#0DD8FF"/>
<stop offset="0.58" stop-color="#0FABFF"/>
<stop offset="0.7" stop-color="#1457FF"/>
<stop offset="0.75" stop-color="#1636FF"/>
<stop offset="1" stop-color="#0E69C7"/>
</linearGradient>
<linearGradient id="paint41_linear_221_1382" x1="-43.1195" y1="59.6148" x2="62.6857" y2="-8.73193" gradientUnits="userSpaceOnUse">
<stop offset="0.52" stop-color="#0DD8FF"/>
<stop offset="0.58" stop-color="#0FABFF"/>
<stop offset="0.7" stop-color="#1457FF"/>
<stop offset="0.75" stop-color="#1636FF"/>
<stop offset="1" stop-color="#0E69C7"/>
</linearGradient>
<linearGradient id="paint42_linear_221_1382" x1="-42.1624" y1="61.1003" x2="63.6429" y2="-7.24639" gradientUnits="userSpaceOnUse">
<stop offset="0.52" stop-color="#0DD8FF"/>
<stop offset="0.58" stop-color="#0FABFF"/>
<stop offset="0.7" stop-color="#1457FF"/>
<stop offset="0.75" stop-color="#1636FF"/>
<stop offset="1" stop-color="#0E69C7"/>
</linearGradient>
<linearGradient id="paint43_linear_221_1382" x1="-45.6221" y1="55.7562" x2="60.1832" y2="-12.6004" gradientUnits="userSpaceOnUse">
<stop offset="0.52" stop-color="#0DD8FF"/>
<stop offset="0.58" stop-color="#0FABFF"/>
<stop offset="0.7" stop-color="#1457FF"/>
<stop offset="0.75" stop-color="#1636FF"/>
<stop offset="1" stop-color="#0E69C7"/>
</linearGradient>
<linearGradient id="paint44_linear_221_1382" x1="-45.5822" y1="55.816" x2="60.233" y2="-12.5307" gradientUnits="userSpaceOnUse">
<stop offset="0.52" stop-color="#0DD8FF"/>
<stop offset="0.58" stop-color="#0FABFF"/>
<stop offset="0.7" stop-color="#1457FF"/>
<stop offset="0.75" stop-color="#1636FF"/>
<stop offset="1" stop-color="#0E69C7"/>
</linearGradient>
<linearGradient id="paint45_linear_221_1382" x1="-37.257" y1="68.6977" x2="68.5482" y2="0.351009" gradientUnits="userSpaceOnUse">
<stop offset="0.52" stop-color="#0DD8FF"/>
<stop offset="0.58" stop-color="#0FABFF"/>
<stop offset="0.7" stop-color="#1457FF"/>
<stop offset="0.75" stop-color="#1636FF"/>
<stop offset="1" stop-color="#0E69C7"/>
</linearGradient>
<linearGradient id="paint46_linear_221_1382" x1="-33.558" y1="74.4207" x2="72.2473" y2="6.06407" gradientUnits="userSpaceOnUse">
<stop offset="0.52" stop-color="#0DD8FF"/>
<stop offset="0.58" stop-color="#0FABFF"/>
<stop offset="0.7" stop-color="#1457FF"/>
<stop offset="0.75" stop-color="#1636FF"/>
<stop offset="1" stop-color="#0E69C7"/>
</linearGradient>
<linearGradient id="paint47_linear_221_1382" x1="-31.9129" y1="76.9731" x2="73.8923" y2="8.62639" gradientUnits="userSpaceOnUse">
<stop offset="0.52" stop-color="#0DD8FF"/>
<stop offset="0.58" stop-color="#0FABFF"/>
<stop offset="0.7" stop-color="#1457FF"/>
<stop offset="0.75" stop-color="#1636FF"/>
<stop offset="1" stop-color="#0E69C7"/>
</linearGradient>
<linearGradient id="paint48_linear_221_1382" x1="-38.9619" y1="66.0556" x2="66.8433" y2="-2.29114" gradientUnits="userSpaceOnUse">
<stop offset="0.52" stop-color="#0DD8FF"/>
<stop offset="0.58" stop-color="#0FABFF"/>
<stop offset="0.7" stop-color="#1457FF"/>
<stop offset="0.75" stop-color="#1636FF"/>
<stop offset="1" stop-color="#0E69C7"/>
</linearGradient>
<linearGradient id="paint49_linear_221_1382" x1="-45.5224" y1="55.8958" x2="60.2828" y2="-12.4509" gradientUnits="userSpaceOnUse">
<stop offset="0.52" stop-color="#0DD8FF"/>
<stop offset="0.58" stop-color="#0FABFF"/>
<stop offset="0.7" stop-color="#1457FF"/>
<stop offset="0.75" stop-color="#1636FF"/>
<stop offset="1" stop-color="#0E69C7"/>
</linearGradient>
<linearGradient id="paint50_linear_221_1382" x1="-29.6895" y1="80.4029" x2="76.1157" y2="12.0562" gradientUnits="userSpaceOnUse">
<stop offset="0.52" stop-color="#0DD8FF"/>
<stop offset="0.58" stop-color="#0FABFF"/>
<stop offset="0.7" stop-color="#1457FF"/>
<stop offset="0.75" stop-color="#1636FF"/>
<stop offset="1" stop-color="#0E69C7"/>
</linearGradient>
<linearGradient id="paint51_linear_221_1382" x1="-33.7973" y1="74.0617" x2="72.0079" y2="5.7051" gradientUnits="userSpaceOnUse">
<stop offset="0.52" stop-color="#0DD8FF"/>
<stop offset="0.58" stop-color="#0FABFF"/>
<stop offset="0.7" stop-color="#1457FF"/>
<stop offset="0.75" stop-color="#1636FF"/>
<stop offset="1" stop-color="#0E69C7"/>
</linearGradient>
<linearGradient id="paint52_linear_221_1382" x1="-40.8662" y1="63.1143" x2="64.939" y2="-5.24233" gradientUnits="userSpaceOnUse">
<stop offset="0.52" stop-color="#0DD8FF"/>
<stop offset="0.58" stop-color="#0FABFF"/>
<stop offset="0.7" stop-color="#1457FF"/>
<stop offset="0.75" stop-color="#1636FF"/>
<stop offset="1" stop-color="#0E69C7"/>
</linearGradient>
<linearGradient id="paint53_linear_221_1382" x1="-36.8182" y1="69.3756" x2="68.987" y2="1.02904" gradientUnits="userSpaceOnUse">
<stop offset="0.52" stop-color="#0DD8FF"/>
<stop offset="0.58" stop-color="#0FABFF"/>
<stop offset="0.7" stop-color="#1457FF"/>
<stop offset="0.75" stop-color="#1636FF"/>
<stop offset="1" stop-color="#0E69C7"/>
</linearGradient>
<linearGradient id="paint54_linear_221_1382" x1="13.4223" y1="37.5005" x2="214.733" y2="41.2493" gradientUnits="userSpaceOnUse">
<stop offset="0.52" stop-color="#0DD8FF"/>
<stop offset="0.58" stop-color="#0FABFF"/>
<stop offset="0.7" stop-color="#1457FF"/>
<stop offset="0.75" stop-color="#1636FF"/>
<stop offset="1" stop-color="#0E69C7"/>
</linearGradient>
<clipPath id="clip0_221_1382">
<rect width="276.069" height="77.9082" fill="white" transform="translate(0.520645 0.0917969)"/>
</clipPath>
</defs>
</svg>
