<svg width="52" height="52" viewBox="0 0 52 52" fill="none" xmlns="http://www.w3.org/2000/svg">
<path d="M26 45.2833L36.725 34.5583C38.846 32.4372 40.2903 29.7347 40.8754 26.7927C41.4604 23.8507 41.16 20.8013 40.012 18.03C38.8641 15.2588 36.9201 12.8902 34.426 11.2237C31.9319 9.55722 28.9996 8.66775 26 8.66775C23.0004 8.66775 20.0681 9.55722 17.574 11.2237C15.0799 12.8902 13.136 15.2588 11.988 18.03C10.84 20.8013 10.5396 23.8507 11.1247 26.7927C11.7097 29.7347 13.1541 32.4372 15.275 34.5583L26 45.2833ZM26 51.4107L12.2113 37.622C9.48424 34.8949 7.62707 31.4203 6.87468 27.6377C6.12229 23.855 6.50846 19.9343 7.98438 16.3711C9.4603 12.808 11.9597 9.7625 15.1664 7.61982C18.3732 5.47714 22.1433 4.3335 26 4.3335C29.8567 4.3335 33.6269 5.47714 36.8336 7.61982C40.0404 9.7625 42.5397 12.808 44.0156 16.3711C45.4916 19.9343 45.8777 23.855 45.1253 27.6377C44.3729 31.4203 42.5158 34.8949 39.7887 37.622L26 51.4107ZM26 28.1667C27.1493 28.1667 28.2515 27.7101 29.0641 26.8975C29.8768 26.0848 30.3333 24.9826 30.3333 23.8333C30.3333 22.6841 29.8768 21.5819 29.0641 20.7692C28.2515 19.9565 27.1493 19.5 26 19.5C24.8507 19.5 23.7485 19.9565 22.9359 20.7692C22.1232 21.5819 21.6667 22.6841 21.6667 23.8333C21.6667 24.9826 22.1232 26.0848 22.9359 26.8975C23.7485 27.7101 24.8507 28.1667 26 28.1667ZM26 32.5C23.7015 32.5 21.4971 31.5869 19.8717 29.9616C18.2464 28.3363 17.3333 26.1319 17.3333 23.8333C17.3333 21.5348 18.2464 19.3304 19.8717 17.7051C21.4971 16.0798 23.7015 15.1667 26 15.1667C28.2986 15.1667 30.503 16.0798 32.1283 17.7051C33.7536 19.3304 34.6667 21.5348 34.6667 23.8333C34.6667 26.1319 33.7536 28.3363 32.1283 29.9616C30.503 31.5869 28.2986 32.5 26 32.5Z" fill="#FF9933"/>
</svg>
