<svg width="20" height="20" viewBox="0 0 20 20" fill="none" xmlns="http://www.w3.org/2000/svg">
<path d="M16.6665 14.1666H18.3332V15.8333H1.6665V14.1666H3.33317V8.33329C3.33317 6.56518 4.03555 4.86949 5.28579 3.61925C6.53603 2.36901 8.23173 1.66663 9.99984 1.66663C11.7679 1.66663 13.4636 2.36901 14.7139 3.61925C15.9641 4.86949 16.6665 6.56518 16.6665 8.33329V14.1666ZM14.9998 14.1666V8.33329C14.9998 7.00721 14.4731 5.73544 13.5354 4.79776C12.5977 3.86008 11.3259 3.33329 9.99984 3.33329C8.67375 3.33329 7.40199 3.86008 6.4643 4.79776C5.52662 5.73544 4.99984 7.00721 4.99984 8.33329V14.1666H14.9998ZM7.49984 17.5H12.4998V19.1666H7.49984V17.5Z" fill="white"/>
<circle cx="14" cy="3" r="2" fill="#FF0000"/>
</svg>
