<svg width="21" height="20" viewBox="0 0 21 20" fill="none" xmlns="http://www.w3.org/2000/svg">
<path d="M9.6665 1.66675C13.8065 1.66675 17.1665 5.02675 17.1665 9.16675C17.1665 13.3067 13.8065 16.6667 9.6665 16.6667C5.5265 16.6667 2.1665 13.3067 2.1665 9.16675C2.1665 5.02675 5.5265 1.66675 9.6665 1.66675ZM9.6665 15.0001C12.889 15.0001 15.4998 12.3892 15.4998 9.16675C15.4998 5.94341 12.889 3.33341 9.6665 3.33341C6.44317 3.33341 3.83317 5.94341 3.83317 9.16675C3.83317 12.3892 6.44317 15.0001 9.6665 15.0001ZM16.7373 15.0592L19.0948 17.4159L17.9157 18.5951L15.559 16.2376L16.7373 15.0592Z" fill="white"/>
</svg>
