<svg width="13" height="13" viewBox="0 0 13 13" fill="none" xmlns="http://www.w3.org/2000/svg">
<path d="M6.28269 3.97081C6.4742 3.39384 7.30805 3.39384 7.49955 3.97081L8.1838 6.0323C8.26945 6.29033 8.51508 6.46503 8.79223 6.46503H11.0065C11.6262 6.46503 11.8839 7.24134 11.3825 7.59792L9.59116 8.87199C9.36693 9.03146 9.27311 9.31413 9.35876 9.57216L10.043 11.6336C10.2345 12.2106 9.55992 12.6904 9.05854 12.3338L7.26715 11.0597C7.04293 10.9003 6.73931 10.9003 6.51509 11.0597L4.7237 12.3338C4.22233 12.6904 3.54773 12.2106 3.73924 11.6336L4.42349 9.57216C4.50914 9.31413 4.41531 9.03146 4.19109 8.87199L2.3997 7.59792C1.89833 7.24134 2.156 6.46503 2.77573 6.46503H4.99001C5.26716 6.46503 5.5128 6.29033 5.59844 6.0323L6.28269 3.97081Z" fill="#0FABFF"/>
<path d="M9.86328 4.13257L11.0524 2.94348" stroke="#0FABFF" stroke-width="1.18909" stroke-linecap="round"/>
<path d="M3.91797 4.13257L2.72888 2.94348" stroke="#0FABFF" stroke-width="1.18909" stroke-linecap="round"/>
<path d="M6.89062 1.75446V1.15991" stroke="#0FABFF" stroke-width="1.18909" stroke-linecap="round"/>
</svg>
