<svg width="14" height="14" viewBox="0 0 14 14" fill="none" xmlns="http://www.w3.org/2000/svg">
<path d="M3.69695 2.33219C4.05826 2.20327 4.45019 2.18699 4.82095 2.2855C5.19171 2.38402 5.52385 2.5927 5.77351 2.88397C6.02317 3.17523 6.1786 3.53539 6.21925 3.91686C6.2599 4.29832 6.18387 4.68314 6.0012 5.02048L11.8019 10.8217L11.036 11.5877L5.23474 5.7864C4.89733 5.96835 4.5127 6.04379 4.13155 6.0028C3.7504 5.9618 3.39062 5.80628 3.09961 5.55674C2.8086 5.3072 2.60003 4.97534 2.50138 4.6049C2.40274 4.23446 2.41864 3.84283 2.54699 3.48161L3.7587 4.69332C3.83365 4.77092 3.92331 4.83282 4.02244 4.8754C4.12157 4.91798 4.22818 4.9404 4.33606 4.94133C4.44395 4.94227 4.55094 4.92171 4.65079 4.88086C4.75064 4.84001 4.84136 4.77968 4.91765 4.70339C4.99394 4.6271 5.05427 4.53638 5.09512 4.43653C5.13597 4.33668 5.15653 4.22969 5.15559 4.1218C5.15466 4.01392 5.13224 3.9073 5.08966 3.80818C5.04708 3.70905 4.98518 3.61939 4.90758 3.54444L3.69641 2.33165L3.69695 2.33219ZM9.31241 3.35269L11.036 2.39503L11.8019 3.16094L10.8442 4.88453L9.88658 5.07628L8.73824 6.22515L7.97179 5.45923L9.12066 4.31036L9.31241 3.35269ZM5.67349 7.75753L6.43941 8.52344L3.56695 11.3959C3.46929 11.4938 3.33786 11.5507 3.19961 11.5548C3.06136 11.559 2.92676 11.5101 2.82342 11.4182C2.72007 11.3262 2.6558 11.1983 2.64378 11.0605C2.63176 10.9227 2.67291 10.7855 2.75879 10.6771L2.80104 10.63L5.67349 7.75753Z" fill="white"/>
</svg>
