<svg width="52" height="52" viewBox="0 0 52 52" fill="none" xmlns="http://www.w3.org/2000/svg">
<path fill-rule="evenodd" clip-rule="evenodd" d="M22.6461 2.8426C23.0526 2.34616 23.5642 1.94618 24.144 1.67152C24.7239 1.39687 25.3575 1.25439 25.9991 1.25439C26.6407 1.25439 27.2742 1.39687 27.8541 1.67152C28.4339 1.94618 28.9455 2.34616 29.352 2.8426L31.5013 5.46643L34.6755 4.26827C35.2756 4.0417 35.9185 3.95118 36.5578 4.00324C37.1971 4.05531 37.8169 4.24865 38.3724 4.56932C38.928 4.89 39.4054 5.33 39.7702 5.85757C40.135 6.38515 40.3782 6.98714 40.4821 7.6201L41.0303 10.9676L44.3778 11.5179C45.011 11.6216 45.6132 11.8646 46.141 12.2293C46.6689 12.594 47.1091 13.0714 47.43 13.6269C47.7509 14.1825 47.9445 14.8024 47.9966 15.4418C48.0488 16.0813 47.9584 16.7244 47.7318 17.3246L46.5336 20.4988L49.1575 22.6481C49.6539 23.0545 50.0539 23.5662 50.3286 24.146C50.6032 24.7258 50.7457 25.3594 50.7457 26.001C50.7457 26.6426 50.6032 27.2762 50.3286 27.856C50.0539 28.4359 49.6539 28.9475 49.1575 29.3539L46.5336 31.5011L47.7318 34.6753C47.9584 35.2755 48.0488 35.9186 47.9966 36.558C47.9445 37.1975 47.7509 37.8174 47.43 38.3729C47.1091 38.9285 46.6689 39.4059 46.141 39.7706C45.6132 40.1353 45.011 40.3783 44.3778 40.4819L41.0303 41.0323L40.4821 44.3798C40.3782 45.0127 40.135 45.6147 39.7702 46.1423C39.4054 46.6699 38.928 47.1099 38.3724 47.4305C37.8169 47.7512 37.1971 47.9446 36.5578 47.9966C35.9185 48.0487 35.2756 47.9582 34.6755 47.7316L31.5013 46.5334L29.352 49.1573C28.9455 49.6537 28.4339 50.0537 27.8541 50.3283C27.2742 50.603 26.6407 50.7455 25.9991 50.7455C25.3575 50.7455 24.7239 50.603 24.144 50.3283C23.5642 50.0537 23.0526 49.6537 22.6461 49.1573L20.4968 46.5334L17.3248 47.7316C16.7247 47.9582 16.0818 48.0487 15.4425 47.9966C14.8032 47.9446 14.1834 47.7512 13.6279 47.4305C13.0723 47.1099 12.5949 46.6699 12.2301 46.1423C11.8652 45.6147 11.6221 45.0127 11.5181 44.3798L10.9678 41.0323L7.62031 40.4819C6.98716 40.3783 6.38493 40.1353 5.85709 39.7706C5.32926 39.4059 4.889 38.9285 4.5681 38.3729C4.2472 37.8174 4.05367 37.1975 4.00148 36.558C3.94929 35.9186 4.03975 35.2755 4.26631 34.6753L5.46665 31.5011L2.84065 29.3518C2.34421 28.9453 1.94423 28.4337 1.66957 27.8539C1.39491 27.274 1.25244 26.6404 1.25244 25.9988C1.25244 25.3573 1.39491 24.7237 1.66957 24.1438C1.94423 23.564 2.34421 23.0524 2.84065 22.6459L5.46665 20.4988L4.26631 17.3246C4.03975 16.7244 3.94929 16.0813 4.00148 15.4418C4.05367 14.8024 4.2472 14.1825 4.5681 13.6269C4.889 13.0714 5.32926 12.594 5.85709 12.2293C6.38493 11.8646 6.98716 11.6216 7.62031 11.5179L10.9678 10.9676L11.516 7.6201C11.6199 6.98714 11.8631 6.38515 12.2279 5.85757C12.5928 5.33 13.0702 4.89 13.6257 4.56932C14.1812 4.24865 14.801 4.05531 15.4403 4.00324C16.0796 3.95118 16.7226 4.0417 17.3226 4.26827L20.4968 5.46643L22.6461 2.8426ZM28.1495 8.2116L26.0001 5.58777L23.8508 8.2116C23.2762 8.91342 22.4958 9.41722 21.6196 9.65201C20.7435 9.88679 19.8157 9.84071 18.9671 9.52027L15.793 8.3221L15.2448 11.6696C15.098 12.5647 14.6741 13.3911 14.0327 14.0325C13.3914 14.6739 12.5649 15.0978 11.6698 15.2446L8.32015 15.7949L9.52048 18.9691C9.84092 19.8177 9.887 20.7454 9.65222 21.6216C9.41744 22.4977 8.91363 23.2781 8.21181 23.8528L5.58581 25.9999L8.21181 28.1493C8.91363 28.7239 9.41744 29.5043 9.65222 30.3805C9.887 31.2566 9.84092 32.1844 9.52048 33.0329L8.32015 36.2071L11.6676 36.7553C12.5627 36.902 13.3892 37.326 14.0306 37.9674C14.6719 38.6087 15.0959 39.4352 15.2426 40.3303L15.793 43.6778L18.9671 42.4796C19.8157 42.1592 20.7435 42.1131 21.6196 42.3479C22.4958 42.5826 23.2762 43.0864 23.8508 43.7883L26.0001 46.4121L28.1473 43.7883C28.7221 43.086 29.5029 42.5819 30.3795 42.3471C31.2561 42.1123 32.1843 42.1587 33.0331 42.4796L36.2051 43.6778L36.7533 40.3303C36.9001 39.4352 37.324 38.6087 37.9654 37.9674C38.6068 37.326 39.4332 36.902 40.3283 36.7553L43.678 36.2071L42.4798 33.0329C42.1594 32.1844 42.1133 31.2566 42.3481 30.3805C42.5829 29.5043 43.0867 28.7239 43.7885 28.1493L46.4101 25.9999L43.7863 23.8506C43.0841 23.2762 42.5799 22.496 42.3447 21.6198C42.1095 20.7436 42.1553 19.8157 42.4755 18.9669L43.6758 15.7928L40.3283 15.2446C39.4332 15.0978 38.6068 14.6739 37.9654 14.0325C37.324 13.3911 36.9001 12.5647 36.7533 11.6696L36.2051 8.31993L33.0331 9.5181C32.1843 9.83904 31.2561 9.88539 30.3795 9.65059C29.5029 9.41579 28.7221 8.9117 28.1473 8.20943L28.1495 8.2116Z" fill="#0FABFF"/>
<path fill-rule="evenodd" clip-rule="evenodd" d="M39.4463 19.9484L24.2797 35.1151C23.8733 35.5213 23.3223 35.7495 22.7478 35.7495C22.1733 35.7495 21.6223 35.5213 21.216 35.1151L12.5493 26.4484L15.613 23.3848L22.7478 30.5196L36.3827 16.8848L39.4463 19.9484Z" fill="#0FABFF"/>
</svg>
