<svg width="14" height="14" viewBox="0 0 14 14" fill="none" xmlns="http://www.w3.org/2000/svg">
<path fill-rule="evenodd" clip-rule="evenodd" d="M7 14C10.866 14 14 10.866 14 7C14 3.13401 10.866 0 7 0C3.13401 0 0 3.13401 0 7C0 10.866 3.13401 14 7 14ZM10.4862 6.32739C10.8879 5.9484 10.9064 5.31551 10.5274 4.91378C10.1484 4.51205 9.51551 4.49362 9.11378 4.87261L6.09326 7.72215L4.88966 6.57586C4.48972 6.19498 3.85675 6.21041 3.47586 6.61034C3.09498 7.01028 3.11041 7.64325 3.51034 8.02414L5.40034 9.82414C5.78523 10.1907 6.38961 10.1921 6.77622 9.82739L10.4862 6.32739Z" fill="#90D272"/>
</svg>
