<svg width="18" height="20" viewBox="0 0 18 20" fill="none" xmlns="http://www.w3.org/2000/svg">
<path d="M15.1152 13.3051L9.39087 10.0171L16.8765 5.63799L17.1306 6.08556L10.4159 10.0127L15.3664 12.8561L15.1152 13.3051Z" fill="url(#paint0_linear_398_2311)"/>
<path d="M11.0529 10.847L10.7974 10.4009L13.2286 8.9792L16.5751 9.75878L16.4668 10.2634L13.3123 9.52622L11.0529 10.847Z" fill="url(#paint1_linear_398_2311)"/>
<path d="M11.9429 11.4148L11.7437 11.1061L13.3231 10.0647L14.8635 10.5211L14.761 10.875L13.3808 10.4655L11.9429 11.4148Z" fill="url(#paint2_linear_398_2311)"/>
<path d="M14.9713 8.8104L13.1941 8.23412L13.3039 7.88309L14.9295 8.40964L16.3082 7.60226L16.4901 7.92112L14.9713 8.8104Z" fill="url(#paint3_linear_398_2311)"/>
<path d="M17.2679 6.25239C17.5494 6.25239 17.7775 6.02123 17.7775 5.73608C17.7775 5.45093 17.5494 5.21977 17.2679 5.21977C16.9865 5.21977 16.7583 5.45093 16.7583 5.73608C16.7583 6.02123 16.9865 6.25239 17.2679 6.25239Z" fill="url(#paint4_linear_398_2311)"/>
<path d="M15.5028 13.7518C15.7842 13.7518 16.0124 13.5207 16.0124 13.2355C16.0124 12.9504 15.7842 12.7192 15.5028 12.7192C15.2213 12.7192 14.9931 12.9504 14.9931 13.2355C14.9931 13.5207 15.2213 13.7518 15.5028 13.7518Z" fill="url(#paint5_linear_398_2311)"/>
<path d="M14.9306 11.1389C15.1371 11.1389 15.3045 10.9693 15.3045 10.7601C15.3045 10.5509 15.1371 10.3813 14.9306 10.3813C14.724 10.3813 14.5566 10.5509 14.5566 10.7601C14.5566 10.9693 14.724 11.1389 14.9306 11.1389Z" fill="url(#paint6_linear_398_2311)"/>
<path d="M16.3991 8.14051C16.6056 8.14051 16.773 7.97091 16.773 7.76169C16.773 7.55247 16.6056 7.38287 16.3991 7.38287C16.1926 7.38287 16.0252 7.55247 16.0252 7.76169C16.0252 7.97091 16.1926 8.14051 16.3991 8.14051Z" fill="url(#paint7_linear_398_2311)"/>
<path d="M16.4887 10.3996C16.7279 10.3996 16.9218 10.2031 16.9218 9.96076C16.9218 9.71842 16.7279 9.52197 16.4887 9.52197C16.2495 9.52197 16.0556 9.71842 16.0556 9.96076C16.0556 10.2031 16.2495 10.3996 16.4887 10.3996Z" fill="url(#paint8_linear_398_2311)"/>
<path d="M9.17634 17.1154L9.12581 10.4487L16.6114 14.8278L16.3559 15.2739L9.64122 11.3467L9.68597 17.111L9.17634 17.1154Z" fill="url(#paint9_linear_398_2311)"/>
<path d="M9.2465 12.3223L9.50059 11.8748L11.9318 13.2964L12.9381 16.6239L12.453 16.7804L11.5059 13.6431L9.2465 12.3223Z" fill="url(#paint10_linear_398_2311)"/>
<path d="M11.0781 15.5892L10.7374 14.1734L9.20702 13.3865L9.37161 13.0574L11.0506 13.9218L11.4318 15.503L11.0781 15.5892Z" fill="url(#paint11_linear_398_2311)"/>
<path d="M14.4656 15.6293L12.9468 14.7415L12.5512 12.8927L12.9064 12.8152L13.2673 14.5031L14.6475 15.3104L14.4656 15.6293Z" fill="url(#paint12_linear_398_2311)"/>
<path d="M16.7243 15.7367C17.0057 15.7367 17.2339 15.5055 17.2339 15.2203C17.2339 14.9352 17.0057 14.704 16.7243 14.704C16.4428 14.704 16.2146 14.9352 16.2146 15.2203C16.2146 15.5055 16.4428 15.7367 16.7243 15.7367Z" fill="url(#paint13_linear_398_2311)"/>
<path d="M9.42904 17.9363C9.7105 17.9363 9.93866 17.7052 9.93866 17.42C9.93866 17.1349 9.7105 16.9037 9.42904 16.9037C9.14758 16.9037 8.91941 17.1349 8.91941 17.42C8.91941 17.7052 9.14758 17.9363 9.42904 17.9363Z" fill="url(#paint14_linear_398_2311)"/>
<path d="M11.2604 16.0593C11.4669 16.0593 11.6343 15.8897 11.6343 15.6805C11.6343 15.4713 11.4669 15.3017 11.2604 15.3017C11.0539 15.3017 10.8865 15.4713 10.8865 15.6805C10.8865 15.8897 11.0539 16.0593 11.2604 16.0593Z" fill="url(#paint15_linear_398_2311)"/>
<path d="M14.5572 15.849C14.7637 15.849 14.9311 15.6794 14.9311 15.4702C14.9311 15.261 14.7637 15.0914 14.5572 15.0914C14.3507 15.0914 14.1833 15.261 14.1833 15.4702C14.1833 15.6794 14.3507 15.849 14.5572 15.849Z" fill="url(#paint16_linear_398_2311)"/>
<path d="M12.7215 17.0865C12.9608 17.0865 13.1547 16.8901 13.1547 16.6477C13.1547 16.4054 12.9608 16.2089 12.7215 16.2089C12.4823 16.2089 12.2884 16.4054 12.2884 16.6477C12.2884 16.8901 12.4823 17.0865 12.7215 17.0865Z" fill="url(#paint17_linear_398_2311)"/>
<path d="M8.62322 19.1898H8.11359V11.334L3.20787 14.2549L2.94945 13.8102L8.62322 10.4315V19.1898Z" fill="url(#paint18_linear_398_2311)"/>
<path d="M7.08252 11.4748H7.59214V14.3182L5.25045 16.8646L4.87364 16.518L7.08252 14.1193V11.4748Z" fill="url(#paint19_linear_398_2311)"/>
<path d="M5.45676 14.9819L5.20412 14.7157L6.24503 13.7079L6.15408 11.9718L6.51645 11.9513L6.61751 13.8571L5.45676 14.9819Z" fill="url(#paint20_linear_398_2311)"/>
<path d="M7.22819 17.7076H6.86438V15.9305L8.24601 14.6595L8.49 14.9315L7.22819 16.0943V17.7076Z" fill="url(#paint21_linear_398_2311)"/>
<path d="M8.34513 20C8.62659 20 8.85476 19.7688 8.85476 19.4837C8.85476 19.1985 8.62659 18.9674 8.34513 18.9674C8.06367 18.9674 7.8355 19.1985 7.8355 19.4837C7.8355 19.7688 8.06367 20 8.34513 20Z" fill="url(#paint22_linear_398_2311)"/>
<path d="M2.81618 14.7014C3.09764 14.7014 3.32581 14.4702 3.32581 14.1851C3.32581 13.8999 3.09764 13.6688 2.81618 13.6688C2.53472 13.6688 2.30655 13.8999 2.30655 14.1851C2.30655 14.4702 2.53472 14.7014 2.81618 14.7014Z" fill="url(#paint23_linear_398_2311)"/>
<path d="M5.21711 15.3006C5.42362 15.3006 5.59103 15.131 5.59103 14.9217C5.59103 14.7125 5.42362 14.5429 5.21711 14.5429C5.0106 14.5429 4.84319 14.7125 4.84319 14.9217C4.84319 15.131 5.0106 15.3006 5.21711 15.3006Z" fill="url(#paint24_linear_398_2311)"/>
<path d="M7.04656 18.0864C7.25307 18.0864 7.42048 17.9168 7.42048 17.7076C7.42048 17.4984 7.25307 17.3288 7.04656 17.3288C6.84005 17.3288 6.67264 17.4984 6.67264 17.7076C6.67264 17.9168 6.84005 18.0864 7.04656 18.0864Z" fill="url(#paint25_linear_398_2311)"/>
<path d="M5.12404 17.1265C5.36324 17.1265 5.55715 16.9301 5.55715 16.6877C5.55715 16.4454 5.36324 16.2489 5.12404 16.2489C4.88483 16.2489 4.69092 16.4454 4.69092 16.6877C4.69092 16.9301 4.88483 17.1265 5.12404 17.1265Z" fill="url(#paint26_linear_398_2311)"/>
<path d="M0.900377 14.3621L0.646285 13.9145L7.36097 9.98736L2.4105 7.144L2.6617 6.69497L8.386 9.98298L0.900377 14.3621Z" fill="url(#paint27_linear_398_2311)"/>
<path d="M6.72484 9.15288L6.98037 9.60045L4.54917 11.0221L1.20121 10.2411L1.31093 9.73647L4.46543 10.4751L6.72484 9.15288Z" fill="url(#paint28_linear_398_2311)"/>
<path d="M4.45492 9.93613L2.91449 9.47978L3.01699 9.12583L4.39717 9.53537L5.83511 8.58612L6.03434 8.89473L4.45492 9.93613Z" fill="url(#paint29_linear_398_2311)"/>
<path d="M1.46997 12.3973L1.28806 12.0784L2.80684 11.1891L4.58404 11.7669L4.47288 12.1179L2.84871 11.5914L1.46997 12.3973Z" fill="url(#paint30_linear_398_2311)"/>
<path d="M0.509629 14.7814C0.791089 14.7814 1.01926 14.5502 1.01926 14.2651C1.01926 13.9799 0.791089 13.7488 0.509629 13.7488C0.228169 13.7488 0 13.9799 0 14.2651C0 14.5502 0.228169 14.7814 0.509629 14.7814Z" fill="url(#paint31_linear_398_2311)"/>
<path d="M2.27479 7.2808C2.55625 7.2808 2.78442 7.04965 2.78442 6.7645C2.78442 6.47935 2.55625 6.24819 2.27479 6.24819C1.99333 6.24819 1.76516 6.47935 1.76516 6.7645C1.76516 7.04965 1.99333 7.2808 2.27479 7.2808Z" fill="url(#paint32_linear_398_2311)"/>
<path d="M2.8474 9.62029C3.05391 9.62029 3.22132 9.45068 3.22132 9.24146C3.22132 9.03225 3.05391 8.86264 2.8474 8.86264C2.64089 8.86264 2.47348 9.03225 2.47348 9.24146C2.47348 9.45068 2.64089 9.62029 2.8474 9.62029Z" fill="url(#paint33_linear_398_2311)"/>
<path d="M1.37888 12.6164C1.58539 12.6164 1.7528 12.4468 1.7528 12.2376C1.7528 12.0284 1.58539 11.8588 1.37888 11.8588C1.17237 11.8588 1.00496 12.0284 1.00496 12.2376C1.00496 12.4468 1.17237 12.6164 1.37888 12.6164Z" fill="url(#paint34_linear_398_2311)"/>
<path d="M1.28919 10.4784C1.52839 10.4784 1.7223 10.2819 1.7223 10.0396C1.7223 9.79727 1.52839 9.60082 1.28919 9.60082C1.04998 9.60082 0.856074 9.79727 0.856074 10.0396C0.856074 10.2819 1.04998 10.4784 1.28919 10.4784Z" fill="url(#paint35_linear_398_2311)"/>
<path d="M8.65187 9.55081L1.16625 5.17315L1.42178 4.72559L8.13647 8.65276L8.09171 2.88852L8.60134 2.88413L8.65187 9.55081Z" fill="url(#paint36_linear_398_2311)"/>
<path d="M8.53137 7.6785L8.27727 8.12461L5.84607 6.70293L4.83981 3.37544L5.32489 3.21894L6.27196 6.35628L8.53137 7.6785Z" fill="url(#paint37_linear_398_2311)"/>
<path d="M8.40685 6.94257L6.72781 6.07816L6.34668 4.49705L6.70038 4.41075L7.0411 5.82658L8.57143 6.61494L8.40685 6.94257Z" fill="url(#paint38_linear_398_2311)"/>
<path d="M4.87103 7.18487L4.50865 5.49699L3.12991 4.68961L3.31182 4.37076L4.8306 5.25858L5.22618 7.10735L4.87103 7.18487Z" fill="url(#paint39_linear_398_2311)"/>
<path d="M1.0544 5.29597C1.33586 5.29597 1.56403 5.06481 1.56403 4.77966C1.56403 4.49451 1.33586 4.26335 1.0544 4.26335C0.772943 4.26335 0.544774 4.49451 0.544774 4.77966C0.544774 5.06481 0.772943 5.29597 1.0544 5.29597Z" fill="url(#paint40_linear_398_2311)"/>
<path d="M8.34738 3.0963C8.62884 3.0963 8.85701 2.86514 8.85701 2.57999C8.85701 2.29484 8.62884 2.06368 8.34738 2.06368C8.06592 2.06368 7.83776 2.29484 7.83776 2.57999C7.83776 2.86514 8.06592 3.0963 8.34738 3.0963Z" fill="url(#paint41_linear_398_2311)"/>
<path d="M6.51645 4.69761C6.72296 4.69761 6.89037 4.52801 6.89037 4.31879C6.89037 4.10957 6.72296 3.93997 6.51645 3.93997C6.30994 3.93997 6.14253 4.10957 6.14253 4.31879C6.14253 4.52801 6.30994 4.69761 6.51645 4.69761Z" fill="url(#paint42_linear_398_2311)"/>
<path d="M3.22073 4.90901C3.42724 4.90901 3.59465 4.7394 3.59465 4.53019C3.59465 4.32097 3.42724 4.15136 3.22073 4.15136C3.01422 4.15136 2.84681 4.32097 2.84681 4.53019C2.84681 4.7394 3.01422 4.90901 3.22073 4.90901Z" fill="url(#paint43_linear_398_2311)"/>
<path d="M5.05636 3.79142C5.29556 3.79142 5.48947 3.59497 5.48947 3.35263C5.48947 3.11029 5.29556 2.91384 5.05636 2.91384C4.81716 2.91384 4.62325 3.11029 4.62325 3.35263C4.62325 3.59497 4.81716 3.79142 5.05636 3.79142Z" fill="url(#paint44_linear_398_2311)"/>
<path d="M9.15401 9.56841V0.810162H9.66364V8.66597L14.5694 5.74509L14.8278 6.18973L9.15401 9.56841Z" fill="url(#paint45_linear_398_2311)"/>
<path d="M10.6945 8.52532H10.1849V5.68196L12.5266 3.13552L12.9034 3.48216L10.6945 5.88088V8.52532Z" fill="url(#paint46_linear_398_2311)"/>
<path d="M11.2605 8.04924L11.1594 6.14343L12.3202 5.01866L12.5714 5.28632L11.5319 6.29261L11.6228 8.02876L11.2605 8.04924Z" fill="url(#paint47_linear_398_2311)"/>
<path d="M9.53109 5.34035L9.2871 5.0683L10.5489 3.9055V2.29222H10.9127V4.06932L9.53109 5.34035Z" fill="url(#paint48_linear_398_2311)"/>
<path d="M9.43355 1.03262C9.71501 1.03262 9.94318 0.801459 9.94318 0.51631C9.94318 0.23116 9.71501 0 9.43355 0C9.15209 0 8.92392 0.23116 8.92392 0.51631C8.92392 0.801459 9.15209 1.03262 9.43355 1.03262Z" fill="url(#paint49_linear_398_2311)"/>
<path d="M14.9614 6.33124C15.2428 6.33124 15.471 6.10008 15.471 5.81493C15.471 5.52978 15.2428 5.29862 14.9614 5.29862C14.6799 5.29862 14.4517 5.52978 14.4517 5.81493C14.4517 6.10008 14.6799 6.33124 14.9614 6.33124Z" fill="url(#paint50_linear_398_2311)"/>
<path d="M12.5597 5.4575C12.7662 5.4575 12.9336 5.28789 12.9336 5.07867C12.9336 4.86946 12.7662 4.69985 12.5597 4.69985C12.3532 4.69985 12.1858 4.86946 12.1858 5.07867C12.1858 5.28789 12.3532 5.4575 12.5597 5.4575Z" fill="url(#paint51_linear_398_2311)"/>
<path d="M10.7314 2.67049C10.9379 2.67049 11.1053 2.50089 11.1053 2.29167C11.1053 2.08245 10.9379 1.91285 10.7314 1.91285C10.5249 1.91285 10.3575 2.08245 10.3575 2.29167C10.3575 2.50089 10.5249 2.67049 10.7314 2.67049Z" fill="url(#paint52_linear_398_2311)"/>
<path d="M12.6539 3.75143C12.8931 3.75143 13.087 3.55497 13.087 3.31264C13.087 3.0703 12.8931 2.87385 12.6539 2.87385C12.4147 2.87385 12.2208 3.0703 12.2208 3.31264C12.2208 3.55497 12.4147 3.75143 12.6539 3.75143Z" fill="url(#paint53_linear_398_2311)"/>
<defs>
<linearGradient id="paint0_linear_398_2311" x1="24.8889" y1="8.00002" x2="0.00374161" y2="7.85715" gradientUnits="userSpaceOnUse">
<stop stop-color="#1636FF"/>
<stop offset="1" stop-color="#0FABFF"/>
</linearGradient>
<linearGradient id="paint1_linear_398_2311" x1="24.8889" y1="8.00002" x2="0.00374161" y2="7.85715" gradientUnits="userSpaceOnUse">
<stop stop-color="#1636FF"/>
<stop offset="1" stop-color="#0FABFF"/>
</linearGradient>
<linearGradient id="paint2_linear_398_2311" x1="24.8889" y1="8.00002" x2="0.00374161" y2="7.85715" gradientUnits="userSpaceOnUse">
<stop stop-color="#1636FF"/>
<stop offset="1" stop-color="#0FABFF"/>
</linearGradient>
<linearGradient id="paint3_linear_398_2311" x1="24.8889" y1="8.00002" x2="0.00374161" y2="7.85715" gradientUnits="userSpaceOnUse">
<stop stop-color="#1636FF"/>
<stop offset="1" stop-color="#0FABFF"/>
</linearGradient>
<linearGradient id="paint4_linear_398_2311" x1="24.8889" y1="8.00002" x2="0.00374161" y2="7.85715" gradientUnits="userSpaceOnUse">
<stop stop-color="#1636FF"/>
<stop offset="1" stop-color="#0FABFF"/>
</linearGradient>
<linearGradient id="paint5_linear_398_2311" x1="24.8889" y1="8.00002" x2="0.00374161" y2="7.85715" gradientUnits="userSpaceOnUse">
<stop stop-color="#1636FF"/>
<stop offset="1" stop-color="#0FABFF"/>
</linearGradient>
<linearGradient id="paint6_linear_398_2311" x1="24.8889" y1="8.00002" x2="0.00374161" y2="7.85715" gradientUnits="userSpaceOnUse">
<stop stop-color="#1636FF"/>
<stop offset="1" stop-color="#0FABFF"/>
</linearGradient>
<linearGradient id="paint7_linear_398_2311" x1="24.8889" y1="8.00002" x2="0.00374161" y2="7.85715" gradientUnits="userSpaceOnUse">
<stop stop-color="#1636FF"/>
<stop offset="1" stop-color="#0FABFF"/>
</linearGradient>
<linearGradient id="paint8_linear_398_2311" x1="24.8889" y1="8.00002" x2="0.00374161" y2="7.85715" gradientUnits="userSpaceOnUse">
<stop stop-color="#1636FF"/>
<stop offset="1" stop-color="#0FABFF"/>
</linearGradient>
<linearGradient id="paint9_linear_398_2311" x1="24.8889" y1="8.00002" x2="0.00374161" y2="7.85715" gradientUnits="userSpaceOnUse">
<stop stop-color="#1636FF"/>
<stop offset="1" stop-color="#0FABFF"/>
</linearGradient>
<linearGradient id="paint10_linear_398_2311" x1="24.8889" y1="8.00002" x2="0.00374161" y2="7.85715" gradientUnits="userSpaceOnUse">
<stop stop-color="#1636FF"/>
<stop offset="1" stop-color="#0FABFF"/>
</linearGradient>
<linearGradient id="paint11_linear_398_2311" x1="24.8889" y1="8.00002" x2="0.00374161" y2="7.85715" gradientUnits="userSpaceOnUse">
<stop stop-color="#1636FF"/>
<stop offset="1" stop-color="#0FABFF"/>
</linearGradient>
<linearGradient id="paint12_linear_398_2311" x1="24.8889" y1="8.00002" x2="0.00374161" y2="7.85715" gradientUnits="userSpaceOnUse">
<stop stop-color="#1636FF"/>
<stop offset="1" stop-color="#0FABFF"/>
</linearGradient>
<linearGradient id="paint13_linear_398_2311" x1="24.8889" y1="8.00002" x2="0.00374161" y2="7.85715" gradientUnits="userSpaceOnUse">
<stop stop-color="#1636FF"/>
<stop offset="1" stop-color="#0FABFF"/>
</linearGradient>
<linearGradient id="paint14_linear_398_2311" x1="24.8889" y1="8.00002" x2="0.00374161" y2="7.85715" gradientUnits="userSpaceOnUse">
<stop stop-color="#1636FF"/>
<stop offset="1" stop-color="#0FABFF"/>
</linearGradient>
<linearGradient id="paint15_linear_398_2311" x1="24.8889" y1="8.00002" x2="0.00374161" y2="7.85715" gradientUnits="userSpaceOnUse">
<stop stop-color="#1636FF"/>
<stop offset="1" stop-color="#0FABFF"/>
</linearGradient>
<linearGradient id="paint16_linear_398_2311" x1="24.8889" y1="8.00002" x2="0.00374161" y2="7.85715" gradientUnits="userSpaceOnUse">
<stop stop-color="#1636FF"/>
<stop offset="1" stop-color="#0FABFF"/>
</linearGradient>
<linearGradient id="paint17_linear_398_2311" x1="24.8889" y1="8.00002" x2="0.00374161" y2="7.85715" gradientUnits="userSpaceOnUse">
<stop stop-color="#1636FF"/>
<stop offset="1" stop-color="#0FABFF"/>
</linearGradient>
<linearGradient id="paint18_linear_398_2311" x1="24.8889" y1="8.00002" x2="0.00374161" y2="7.85715" gradientUnits="userSpaceOnUse">
<stop stop-color="#1636FF"/>
<stop offset="1" stop-color="#0FABFF"/>
</linearGradient>
<linearGradient id="paint19_linear_398_2311" x1="24.8889" y1="8.00002" x2="0.00374161" y2="7.85715" gradientUnits="userSpaceOnUse">
<stop stop-color="#1636FF"/>
<stop offset="1" stop-color="#0FABFF"/>
</linearGradient>
<linearGradient id="paint20_linear_398_2311" x1="24.8889" y1="8.00002" x2="0.00374161" y2="7.85715" gradientUnits="userSpaceOnUse">
<stop stop-color="#1636FF"/>
<stop offset="1" stop-color="#0FABFF"/>
</linearGradient>
<linearGradient id="paint21_linear_398_2311" x1="24.8889" y1="8.00002" x2="0.00374161" y2="7.85715" gradientUnits="userSpaceOnUse">
<stop stop-color="#1636FF"/>
<stop offset="1" stop-color="#0FABFF"/>
</linearGradient>
<linearGradient id="paint22_linear_398_2311" x1="24.8889" y1="8.00002" x2="0.00374161" y2="7.85715" gradientUnits="userSpaceOnUse">
<stop stop-color="#1636FF"/>
<stop offset="1" stop-color="#0FABFF"/>
</linearGradient>
<linearGradient id="paint23_linear_398_2311" x1="24.8889" y1="8.00002" x2="0.00374161" y2="7.85715" gradientUnits="userSpaceOnUse">
<stop stop-color="#1636FF"/>
<stop offset="1" stop-color="#0FABFF"/>
</linearGradient>
<linearGradient id="paint24_linear_398_2311" x1="24.8889" y1="8.00002" x2="0.00374161" y2="7.85715" gradientUnits="userSpaceOnUse">
<stop stop-color="#1636FF"/>
<stop offset="1" stop-color="#0FABFF"/>
</linearGradient>
<linearGradient id="paint25_linear_398_2311" x1="24.8889" y1="8.00002" x2="0.00374161" y2="7.85715" gradientUnits="userSpaceOnUse">
<stop stop-color="#1636FF"/>
<stop offset="1" stop-color="#0FABFF"/>
</linearGradient>
<linearGradient id="paint26_linear_398_2311" x1="24.8889" y1="8.00002" x2="0.00374161" y2="7.85715" gradientUnits="userSpaceOnUse">
<stop stop-color="#1636FF"/>
<stop offset="1" stop-color="#0FABFF"/>
</linearGradient>
<linearGradient id="paint27_linear_398_2311" x1="24.8889" y1="8.00002" x2="0.00374161" y2="7.85715" gradientUnits="userSpaceOnUse">
<stop stop-color="#1636FF"/>
<stop offset="1" stop-color="#0FABFF"/>
</linearGradient>
<linearGradient id="paint28_linear_398_2311" x1="24.8889" y1="8.00002" x2="0.00374161" y2="7.85715" gradientUnits="userSpaceOnUse">
<stop stop-color="#1636FF"/>
<stop offset="1" stop-color="#0FABFF"/>
</linearGradient>
<linearGradient id="paint29_linear_398_2311" x1="24.8889" y1="8.00002" x2="0.00374161" y2="7.85715" gradientUnits="userSpaceOnUse">
<stop stop-color="#1636FF"/>
<stop offset="1" stop-color="#0FABFF"/>
</linearGradient>
<linearGradient id="paint30_linear_398_2311" x1="24.8889" y1="8.00002" x2="0.00374161" y2="7.85715" gradientUnits="userSpaceOnUse">
<stop stop-color="#1636FF"/>
<stop offset="1" stop-color="#0FABFF"/>
</linearGradient>
<linearGradient id="paint31_linear_398_2311" x1="24.8889" y1="8.00002" x2="0.00374161" y2="7.85715" gradientUnits="userSpaceOnUse">
<stop stop-color="#1636FF"/>
<stop offset="1" stop-color="#0FABFF"/>
</linearGradient>
<linearGradient id="paint32_linear_398_2311" x1="24.8889" y1="8.00002" x2="0.00374161" y2="7.85715" gradientUnits="userSpaceOnUse">
<stop stop-color="#1636FF"/>
<stop offset="1" stop-color="#0FABFF"/>
</linearGradient>
<linearGradient id="paint33_linear_398_2311" x1="24.8889" y1="8.00002" x2="0.00374161" y2="7.85715" gradientUnits="userSpaceOnUse">
<stop stop-color="#1636FF"/>
<stop offset="1" stop-color="#0FABFF"/>
</linearGradient>
<linearGradient id="paint34_linear_398_2311" x1="24.8889" y1="8.00002" x2="0.00374161" y2="7.85715" gradientUnits="userSpaceOnUse">
<stop stop-color="#1636FF"/>
<stop offset="1" stop-color="#0FABFF"/>
</linearGradient>
<linearGradient id="paint35_linear_398_2311" x1="24.8889" y1="8.00002" x2="0.00374161" y2="7.85715" gradientUnits="userSpaceOnUse">
<stop stop-color="#1636FF"/>
<stop offset="1" stop-color="#0FABFF"/>
</linearGradient>
<linearGradient id="paint36_linear_398_2311" x1="24.8889" y1="8.00002" x2="0.00374161" y2="7.85715" gradientUnits="userSpaceOnUse">
<stop stop-color="#1636FF"/>
<stop offset="1" stop-color="#0FABFF"/>
</linearGradient>
<linearGradient id="paint37_linear_398_2311" x1="24.8889" y1="8.00002" x2="0.00374161" y2="7.85715" gradientUnits="userSpaceOnUse">
<stop stop-color="#1636FF"/>
<stop offset="1" stop-color="#0FABFF"/>
</linearGradient>
<linearGradient id="paint38_linear_398_2311" x1="24.8889" y1="8.00002" x2="0.00374161" y2="7.85715" gradientUnits="userSpaceOnUse">
<stop stop-color="#1636FF"/>
<stop offset="1" stop-color="#0FABFF"/>
</linearGradient>
<linearGradient id="paint39_linear_398_2311" x1="24.8889" y1="8.00002" x2="0.00374161" y2="7.85715" gradientUnits="userSpaceOnUse">
<stop stop-color="#1636FF"/>
<stop offset="1" stop-color="#0FABFF"/>
</linearGradient>
<linearGradient id="paint40_linear_398_2311" x1="24.8889" y1="8.00002" x2="0.00374161" y2="7.85715" gradientUnits="userSpaceOnUse">
<stop stop-color="#1636FF"/>
<stop offset="1" stop-color="#0FABFF"/>
</linearGradient>
<linearGradient id="paint41_linear_398_2311" x1="24.8889" y1="8.00002" x2="0.00374161" y2="7.85715" gradientUnits="userSpaceOnUse">
<stop stop-color="#1636FF"/>
<stop offset="1" stop-color="#0FABFF"/>
</linearGradient>
<linearGradient id="paint42_linear_398_2311" x1="24.8889" y1="8.00002" x2="0.00374161" y2="7.85715" gradientUnits="userSpaceOnUse">
<stop stop-color="#1636FF"/>
<stop offset="1" stop-color="#0FABFF"/>
</linearGradient>
<linearGradient id="paint43_linear_398_2311" x1="24.8889" y1="8.00002" x2="0.00374161" y2="7.85715" gradientUnits="userSpaceOnUse">
<stop stop-color="#1636FF"/>
<stop offset="1" stop-color="#0FABFF"/>
</linearGradient>
<linearGradient id="paint44_linear_398_2311" x1="24.8889" y1="8.00002" x2="0.00374161" y2="7.85715" gradientUnits="userSpaceOnUse">
<stop stop-color="#1636FF"/>
<stop offset="1" stop-color="#0FABFF"/>
</linearGradient>
<linearGradient id="paint45_linear_398_2311" x1="24.8889" y1="8.00002" x2="0.00374161" y2="7.85715" gradientUnits="userSpaceOnUse">
<stop stop-color="#1636FF"/>
<stop offset="1" stop-color="#0FABFF"/>
</linearGradient>
<linearGradient id="paint46_linear_398_2311" x1="24.8889" y1="8.00002" x2="0.00374161" y2="7.85715" gradientUnits="userSpaceOnUse">
<stop stop-color="#1636FF"/>
<stop offset="1" stop-color="#0FABFF"/>
</linearGradient>
<linearGradient id="paint47_linear_398_2311" x1="24.8889" y1="8.00002" x2="0.00374161" y2="7.85715" gradientUnits="userSpaceOnUse">
<stop stop-color="#1636FF"/>
<stop offset="1" stop-color="#0FABFF"/>
</linearGradient>
<linearGradient id="paint48_linear_398_2311" x1="24.8889" y1="8.00002" x2="0.00374161" y2="7.85715" gradientUnits="userSpaceOnUse">
<stop stop-color="#1636FF"/>
<stop offset="1" stop-color="#0FABFF"/>
</linearGradient>
<linearGradient id="paint49_linear_398_2311" x1="24.8889" y1="8.00002" x2="0.00374161" y2="7.85715" gradientUnits="userSpaceOnUse">
<stop stop-color="#1636FF"/>
<stop offset="1" stop-color="#0FABFF"/>
</linearGradient>
<linearGradient id="paint50_linear_398_2311" x1="24.8889" y1="8.00002" x2="0.00374161" y2="7.85715" gradientUnits="userSpaceOnUse">
<stop stop-color="#1636FF"/>
<stop offset="1" stop-color="#0FABFF"/>
</linearGradient>
<linearGradient id="paint51_linear_398_2311" x1="24.8889" y1="8.00002" x2="0.00374161" y2="7.85715" gradientUnits="userSpaceOnUse">
<stop stop-color="#1636FF"/>
<stop offset="1" stop-color="#0FABFF"/>
</linearGradient>
<linearGradient id="paint52_linear_398_2311" x1="24.8889" y1="8.00002" x2="0.00374161" y2="7.85715" gradientUnits="userSpaceOnUse">
<stop stop-color="#1636FF"/>
<stop offset="1" stop-color="#0FABFF"/>
</linearGradient>
<linearGradient id="paint53_linear_398_2311" x1="24.8889" y1="8.00002" x2="0.00374161" y2="7.85715" gradientUnits="userSpaceOnUse">
<stop stop-color="#1636FF"/>
<stop offset="1" stop-color="#0FABFF"/>
</linearGradient>
</defs>
</svg>
