<svg width="20" height="20" viewBox="0 0 20 20" fill="none" xmlns="http://www.w3.org/2000/svg">
<path d="M18 5L18.847 16.8575C18.9297 18.0152 18.0127 19 16.852 19H3.14795C1.98727 19 1.07034 18.0152 1.15304 16.8575L2 5M18 5H2M18 5L17 3L16 1H5L3.5 3L2 5" stroke="black" stroke-width="2" stroke-linecap="round" stroke-linejoin="round"/>
<path fill-rule="evenodd" clip-rule="evenodd" d="M18 6H2V19H18V6ZM8 8C8 7.44772 7.55228 7 7 7C6.44772 7 6 7.44772 6 8V10C6 12.2091 7.79086 14 10 14C12.2091 14 14 12.2091 14 10V8C14 7.44772 13.5523 7 13 7C12.4477 7 12 7.44772 12 8V10C12 11.1046 11.1046 12 10 12C8.89543 12 8 11.1046 8 10V8Z" fill="black"/>
</svg>
